<svg width="500" height="500" viewBox="0 0 500 500" fill="none" xmlns="http://www.w3.org/2000/svg">
<path d="M250 427.56C357.082 427.56 443.89 422.492 443.89 416.24C443.89 409.988 357.082 404.92 250 404.92C142.917 404.92 56.11 409.988 56.11 416.24C56.11 422.492 142.917 427.56 250 427.56Z" fill="#F5F5F5"/>
<path d="M210.43 70C215.097 65.8467 221.14 63.1267 228.56 61.84C235.98 60.5533 243.823 61.37 252.09 64.29C260.33 67.21 267.867 72.4833 274.7 80.11C281.053 87.2033 285.347 94.6333 287.58 102.4C289.808 109.582 290.012 117.239 288.17 124.53C286.42 131.288 282.695 137.37 277.47 142C273.752 145.486 269.216 147.979 264.28 149.25C259.873 150.348 255.324 150.766 250.79 150.49C246.437 150.21 238.883 149.467 228.13 148.26C225.613 147.986 223.082 147.846 220.55 147.84C218.816 147.829 217.087 148.027 215.4 148.43C214.062 148.771 212.762 149.247 211.52 149.85C210.32 150.44 208.29 151.53 205.41 153.14C199.49 156.76 194.343 156.127 189.97 151.24C188.884 150.085 188.037 148.725 187.479 147.24C186.921 145.756 186.663 144.175 186.72 142.59C186.833 139.37 188.527 136.293 191.8 133.36C198.467 126.971 207.398 123.49 216.63 123.68C221.886 123.855 227.129 124.296 232.34 125C237.88 125.67 241.97 126.09 244.61 126.23C247.231 126.38 249.86 126.161 252.42 125.58C254.974 125.014 257.335 123.79 259.27 122.03C261.163 120.386 262.679 118.354 263.715 116.07C264.75 113.787 265.281 111.307 265.27 108.8C265.35 103.467 263.35 98.51 259.27 93.93C254.45 88.55 249.547 85.8067 244.56 85.7C239.573 85.5933 233.637 87.0267 226.75 90C219.743 93.2867 214.16 92.62 210 88C208.816 86.7309 207.91 85.2286 207.34 83.5893C206.77 81.95 206.549 80.2098 206.69 78.48C206.72 76.8892 207.066 75.3202 207.708 73.8644C208.35 72.4085 209.276 71.095 210.43 70ZM162.09 177.69C159.477 174.851 158.018 171.138 158 167.28C157.94 163.333 159.643 159.803 163.11 156.69C164.537 155.37 166.222 154.361 168.058 153.726C169.895 153.091 171.843 152.844 173.78 153C175.742 153.119 177.66 153.631 179.419 154.508C181.179 155.384 182.743 156.606 184.02 158.1C185.333 159.521 186.347 161.192 187.001 163.012C187.656 164.833 187.938 166.767 187.831 168.699C187.723 170.63 187.229 172.521 186.377 174.258C185.525 175.995 184.332 177.543 182.87 178.81C179.45 181.87 175.783 183.177 171.87 182.73C168.089 182.349 164.594 180.548 162.09 177.69Z" fill="#FFD53E"/>
<g opacity="0.5">
<path d="M299.85 137.05C301.254 133.714 303.582 130.848 306.56 128.79C310.06 126.297 314.146 124.753 318.42 124.31C323.399 123.774 328.433 124.511 333.05 126.45C337.411 128.064 341.35 130.645 344.57 134C347.36 136.903 349.298 140.519 350.17 144.45C350.974 148.124 350.661 151.955 349.27 155.45C348.327 158.014 346.751 160.297 344.69 162.09C342.844 163.676 340.767 164.971 338.53 165.93C336.383 166.843 332.587 168.303 327.14 170.31C325.866 170.777 324.621 171.318 323.41 171.93C322.577 172.339 321.798 172.849 321.09 173.45C320.528 173.931 320.018 174.471 319.57 175.06C319.14 175.63 318.43 176.64 317.44 178.06C315.44 181.22 312.823 182.153 309.59 180.86C308.792 180.567 308.059 180.12 307.435 179.543C306.81 178.967 306.305 178.272 305.95 177.5C305.593 176.596 305.429 175.628 305.466 174.657C305.504 173.686 305.744 172.733 306.17 171.86C307.828 167.2 311.266 163.388 315.73 161.26C318.285 160.07 320.899 159.009 323.56 158.08C326.37 157.08 328.43 156.29 329.73 155.73C331.02 155.17 332.225 154.433 333.31 153.54C334.397 152.653 335.234 151.498 335.74 150.19C336.252 148.949 336.49 147.612 336.436 146.271C336.383 144.93 336.039 143.616 335.43 142.42C334.092 139.788 331.788 137.774 329 136.8C325.4 135.38 322.4 135.243 320 136.39C317.086 137.941 314.536 140.096 312.52 142.71C309.947 145.97 307.107 146.97 304 145.71C303.129 145.384 302.335 144.881 301.669 144.232C301.003 143.583 300.479 142.802 300.13 141.94C299.761 141.184 299.547 140.363 299.499 139.523C299.451 138.684 299.57 137.843 299.85 137.05ZM302.58 200.25C300.648 199.518 299.058 198.092 298.12 196.25C297.64 195.282 297.38 194.219 297.359 193.138C297.339 192.058 297.557 190.986 298 190C298.361 189.022 298.921 188.13 299.646 187.381C300.371 186.632 301.244 186.042 302.21 185.65C303.179 185.237 304.222 185.023 305.275 185.023C306.329 185.023 307.371 185.237 308.34 185.65C309.31 186.015 310.197 186.571 310.947 187.286C311.698 188 312.298 188.857 312.711 189.808C313.124 190.758 313.342 191.782 313.352 192.818C313.363 193.854 313.165 194.882 312.77 195.84C312.424 196.867 311.856 197.804 311.106 198.586C310.356 199.367 309.442 199.973 308.43 200.36C306.536 201.063 304.446 201.024 302.58 200.25Z" fill="#FFD53E"/>
</g>
<g opacity="0.1">
<path d="M367.11 131.16C366.206 129.737 365.724 128.086 365.72 126.4C365.687 124.402 366.176 122.43 367.14 120.68C368.253 118.641 369.867 116.921 371.83 115.68C373.601 114.433 375.632 113.606 377.77 113.26C379.622 112.96 381.521 113.174 383.26 113.88C384.888 114.539 386.281 115.671 387.26 117.13C387.995 118.169 388.456 119.376 388.6 120.64C388.715 121.765 388.661 122.901 388.44 124.01C388.22 125.083 387.773 126.923 387.1 129.53C386.948 130.143 386.828 130.764 386.74 131.39C386.624 132.16 386.685 132.947 386.92 133.69C387.03 134.01 387.23 134.55 387.53 135.31C387.713 135.621 387.832 135.966 387.88 136.324C387.928 136.681 387.906 137.045 387.813 137.394C387.72 137.742 387.558 138.069 387.338 138.355C387.118 138.641 386.843 138.881 386.53 139.06C385.879 139.517 385.074 139.697 384.29 139.56C383.848 139.46 383.432 139.269 383.069 138.999C382.705 138.728 382.403 138.385 382.18 137.99C381.476 136.992 380.979 135.863 380.72 134.67C380.513 133.636 380.489 132.573 380.65 131.53C380.866 130.236 381.15 128.954 381.5 127.69C381.86 126.34 382.1 125.35 382.23 124.69C382.356 124.031 382.393 123.359 382.34 122.69C382.283 122.038 382.059 121.411 381.69 120.87C381.349 120.347 380.899 119.904 380.371 119.571C379.843 119.238 379.249 119.023 378.63 118.94C377.256 118.753 375.863 119.112 374.75 119.94C374.119 120.291 373.567 120.769 373.13 121.344C372.693 121.918 372.379 122.578 372.21 123.28C372.036 124.808 372.19 126.356 372.66 127.82C373.23 129.67 372.86 131.02 371.57 131.89C371.216 132.137 370.815 132.308 370.391 132.392C369.968 132.477 369.532 132.472 369.11 132.38C368.712 132.321 368.33 132.183 367.986 131.973C367.643 131.764 367.345 131.487 367.11 131.16ZM392.06 146.82C391.267 147.362 390.303 147.594 389.35 147.47C388.847 147.398 388.367 147.215 387.945 146.933C387.522 146.651 387.169 146.277 386.91 145.84C386.631 145.444 386.437 144.994 386.34 144.519C386.244 144.044 386.247 143.554 386.35 143.08C386.447 142.599 386.639 142.142 386.916 141.737C387.193 141.332 387.548 140.986 387.96 140.72C388.356 140.444 388.804 140.251 389.277 140.153C389.749 140.055 390.237 140.054 390.71 140.15C391.185 140.238 391.638 140.422 392.039 140.692C392.439 140.963 392.78 141.312 393.04 141.72C393.342 142.125 393.551 142.59 393.653 143.084C393.755 143.579 393.747 144.089 393.63 144.58C393.406 145.497 392.845 146.296 392.06 146.82Z" fill="#FFDB3F"/>
</g>
<path d="M185.79 409.62L178.23 407.66L182.74 390.37L190.3 392.33L185.79 409.62Z" fill="#FFC3BD"/>
<path d="M178.15 405.66L186.59 408.33C186.66 408.347 186.726 408.379 186.784 408.422C186.842 408.465 186.89 408.52 186.927 408.582C186.963 408.645 186.986 408.714 186.996 408.786C187.005 408.858 186.999 408.93 186.98 409L185.2 415.55C185.075 415.894 184.822 416.176 184.494 416.338C184.167 416.5 183.789 416.53 183.44 416.42C180.52 415.42 179.17 414.84 175.44 413.66C173.15 412.94 167.63 411.31 164.44 410.31C161.25 409.31 162.44 406.31 163.83 406.5C170.25 407.17 173.98 406.63 176.65 405.7C177.132 405.522 177.659 405.508 178.15 405.66Z" fill="#263238"/>
<path opacity="0.2" d="M190.3 392.34L182.74 390.38L180.42 399.29L187.98 401.25L190.3 392.34Z" fill="black"/>
<path d="M209.35 215.53C209.35 215.53 195.51 281.3 191.83 302.83C187.83 326.41 179.04 393.92 179.04 393.92L191.89 398.59C191.89 398.59 212 327 215.05 304.33C221.44 282.17 237.63 215.53 237.63 215.53H209.35Z" fill="#FFDE41"/>
<path opacity="0.3" d="M227.12 237C222.63 247.78 221 267.41 221.78 279.15C225.34 265.29 229.29 249.46 232.35 237.06C231.36 233.65 230 230.07 227.12 237Z" fill="black"/>
<path d="M191.63 400.11L177.85 396.13L178.37 390.3L194.77 394.91L191.63 400.11Z" fill="#263238"/>
<path d="M175.05 406.08C175.732 406.275 176.432 406.399 177.14 406.45C177.176 406.456 177.212 406.451 177.245 406.435C177.277 406.418 177.303 406.392 177.32 406.36C177.339 406.332 177.349 406.299 177.349 406.265C177.349 406.231 177.339 406.198 177.32 406.17C177.13 405.93 175.48 403.86 174.45 403.92C174.332 403.924 174.216 403.959 174.115 404.02C174.013 404.081 173.929 404.167 173.87 404.27C173.768 404.414 173.706 404.582 173.69 404.758C173.674 404.933 173.705 405.11 173.78 405.27C174.09 405.686 174.542 405.975 175.05 406.08ZM176.75 406.08C175.31 405.91 174.34 405.56 174.1 405.08C174.053 404.976 174.036 404.862 174.05 404.749C174.064 404.636 174.109 404.529 174.18 404.44C174.208 404.389 174.248 404.346 174.297 404.315C174.346 404.283 174.402 404.264 174.46 404.26C175 404.24 176.06 405.25 176.75 406.06V406.08Z" fill="#407BFF"/>
<path d="M177.1 406.45H177.19C177.22 406.446 177.248 406.434 177.272 406.417C177.296 406.399 177.316 406.377 177.33 406.35C177.33 406.26 178.25 404.23 177.73 403.29C177.659 403.17 177.563 403.066 177.45 402.985C177.336 402.904 177.207 402.848 177.07 402.82C176.92 402.777 176.759 402.783 176.613 402.839C176.467 402.895 176.343 402.997 176.26 403.13C175.81 403.87 176.42 405.73 177.02 406.39C177.04 406.418 177.068 406.439 177.1 406.45ZM177.1 403.19C177.169 403.211 177.233 403.246 177.288 403.292C177.343 403.338 177.388 403.396 177.42 403.46C177.601 404.286 177.499 405.149 177.13 405.91C176.66 405.17 176.3 403.79 176.6 403.31C176.6 403.22 176.75 403.12 177.01 403.17L177.1 403.19Z" fill="#407BFF"/>
<path d="M220.06 159.2C219.39 160.82 218.75 162.26 218.06 163.74C217.37 165.22 216.63 166.67 215.88 168.12C214.36 171.01 212.76 173.86 211 176.64C207.498 182.418 203.263 187.719 198.4 192.41L198.22 192.59C197.965 192.82 197.683 193.018 197.38 193.18C196.547 193.629 195.632 193.905 194.69 193.99C194.151 194.029 193.609 194.029 193.07 193.99C192.263 193.938 191.461 193.828 190.67 193.66C189.25 193.36 187.99 192.99 186.75 192.6C184.29 191.82 182 190.87 179.75 189.91C177.5 188.95 175.28 187.91 173.1 186.78C170.92 185.65 168.78 184.52 166.66 183.24C166.168 182.94 165.8 182.474 165.621 181.927C165.442 181.379 165.464 180.786 165.683 180.253C165.903 179.721 166.305 179.284 166.817 179.021C167.33 178.758 167.92 178.687 168.48 178.82C173.12 179.94 177.75 181.19 182.31 182.3C184.58 182.87 186.85 183.37 189.03 183.79C190.057 183.998 191.096 184.148 192.14 184.24C192.533 184.263 192.927 184.263 193.32 184.24C193.47 184.24 193.53 184.24 193.49 184.24C193.135 184.25 192.789 184.357 192.49 184.55L191.49 185.32C193.425 183.179 195.219 180.914 196.86 178.54C198.54 176.11 200.13 173.54 201.66 170.96C203.19 168.38 204.66 165.67 206.05 162.96C207.44 160.25 208.82 157.46 210.05 154.85L210.11 154.72C210.7 153.394 211.793 152.357 213.148 151.836C214.503 151.316 216.009 151.355 217.335 151.945C218.661 152.535 219.698 153.628 220.219 154.983C220.739 156.338 220.7 157.844 220.11 159.17L220.06 159.2Z" fill="#FFC3BD"/>
<path d="M218.52 148.62C212.08 148.8 207.66 155.79 203.44 164.5C206.675 170.092 211.31 174.745 216.89 178C216.89 178 233.81 148.19 218.52 148.62Z" fill="#E0E0E0"/>
<path d="M166.34 183.28L160.54 181.8L165.06 175.99C165.06 175.99 170.06 176.78 171.96 180.99L169.9 182.46C169.4 182.844 168.824 183.116 168.209 183.258C167.595 183.399 166.957 183.407 166.34 183.28Z" fill="#FFC3BD"/>
<path d="M159.13 175.86L160.25 174.86C160.708 174.459 161.293 174.232 161.902 174.219C162.511 174.206 163.105 174.408 163.58 174.79L165.06 175.98L160.54 181.79L158.69 178.91C158.384 178.434 158.259 177.863 158.34 177.303C158.421 176.742 158.702 176.23 159.13 175.86Z" fill="#FFC3BD"/>
<path d="M253.46 408.72H245.55L243.66 391.1H251.57L253.46 408.72Z" fill="#FFC3BD"/>
<path d="M244.86 407.84H253.75C253.897 407.832 254.041 407.882 254.152 407.979C254.262 408.076 254.33 408.213 254.34 408.36L254.77 415.12C254.762 415.483 254.612 415.829 254.352 416.084C254.093 416.338 253.743 416.48 253.38 416.48C250.29 416.42 248.81 416.25 244.9 416.25C242.5 416.25 235.9 416.49 232.55 416.49C229.2 416.49 229.32 413.33 230.73 413.05C237.04 411.76 241.26 409.99 243.5 408.31C243.889 408.008 244.367 407.843 244.86 407.84Z" fill="#263238"/>
<path opacity="0.2" d="M251.57 391.1H243.66L244.64 400.19H252.55L251.57 391.1Z" fill="black"/>
<path d="M224.81 215.53C224.81 215.53 226.56 281.65 227.81 303.44C229.21 327.3 241.06 397.99 241.06 397.99H255.56C255.56 397.99 252.38 326.4 249.98 302.99C250.98 277.35 251.64 215.51 251.64 215.51L224.81 215.53Z" fill="#FFDC40"/>
<path d="M256.14 397.99H239.7L238.92 392.7L256.58 393L256.14 397.99Z" fill="#263238"/>
<path d="M242.06 409.16C242.771 409.144 243.478 409.054 244.17 408.89C244.204 408.884 244.235 408.867 244.258 408.842C244.282 408.816 244.296 408.784 244.3 408.75C244.31 408.716 244.308 408.681 244.295 408.648C244.283 408.616 244.26 408.588 244.23 408.57C243.98 408.41 241.74 406.93 240.77 407.3C240.662 407.34 240.566 407.407 240.49 407.494C240.415 407.582 240.363 407.687 240.34 407.8C240.277 407.971 240.266 408.157 240.307 408.334C240.347 408.512 240.439 408.674 240.57 408.8C241.008 409.094 241.536 409.222 242.06 409.16ZM243.66 408.64C242.24 408.91 241.2 408.86 240.83 408.51C240.754 408.426 240.701 408.324 240.679 408.213C240.656 408.102 240.663 407.987 240.7 407.88C240.709 407.825 240.733 407.773 240.768 407.729C240.803 407.685 240.848 407.651 240.9 407.63C241.42 407.43 242.74 408.07 243.66 408.64Z" fill="#407BFF"/>
<path d="M244.12 408.9H244.21C244.237 408.884 244.26 408.862 244.277 408.836C244.294 408.81 244.305 408.781 244.31 408.75C244.31 408.66 244.49 406.47 243.69 405.75C243.588 405.652 243.464 405.579 243.328 405.538C243.193 405.496 243.05 405.487 242.91 405.51C242.755 405.512 242.606 405.565 242.485 405.661C242.364 405.757 242.277 405.89 242.24 406.04C242.06 406.87 243.24 408.46 244.03 408.91L244.12 408.9ZM243 405.81C243.074 405.808 243.148 405.821 243.217 405.848C243.285 405.876 243.348 405.917 243.4 405.97C243.838 406.696 244.021 407.548 243.92 408.39C243.23 407.83 242.44 406.62 242.56 406.08C242.56 405.97 242.65 405.85 242.92 405.82L243 405.81Z" fill="#407BFF"/>
<path d="M212.68 153.71C213.107 152.415 213.874 151.259 214.902 150.364C215.929 149.468 217.179 148.866 218.52 148.62C220.474 148.164 222.454 147.83 224.45 147.62C230.445 147.289 236.455 147.289 242.45 147.62C245.59 147.76 248.79 148.13 251.34 148.49H251.43C252.085 148.566 252.718 148.775 253.29 149.104C253.862 149.432 254.361 149.874 254.756 150.401C255.152 150.929 255.436 151.532 255.592 152.173C255.747 152.814 255.77 153.48 255.66 154.13C253.664 164.32 252.357 174.634 251.75 185C251.13 200.06 251.97 211.88 251.67 215.51H209.35C206.78 178.78 210.1 162.08 212.68 153.71Z" fill="#E0E0E0"/>
<path d="M245.32 125.21C246.058 125.743 246.645 126.459 247.024 127.287C247.403 128.115 247.56 129.027 247.48 129.934C247.401 130.841 247.087 131.712 246.57 132.462C246.053 133.211 245.35 133.814 244.53 134.21C246.24 137.04 241.69 142.04 237.11 138.9C232.53 135.76 239 122.54 245.32 125.21Z" fill="#263238"/>
<path d="M226.38 122.17C225.752 122.189 225.129 122.044 224.574 121.749C224.018 121.455 223.548 121.022 223.211 120.492C222.873 119.961 222.679 119.353 222.647 118.725C222.615 118.097 222.747 117.472 223.03 116.91C220.9 116.08 221.28 111.43 225.12 111.23C228.96 111.03 230.94 121 226.38 122.17Z" fill="#263238"/>
<path d="M225.13 151.55C224.844 151.287 224.631 150.955 224.512 150.585C224.393 150.215 224.372 149.82 224.452 149.44C224.532 149.06 224.709 148.707 224.966 148.416C225.224 148.125 225.552 147.906 225.92 147.78C229.78 146.36 230.48 143.56 230.17 140.51C230.081 139.652 229.941 138.801 229.75 137.96L236.3 132.73L241.12 128.89C239.92 133.89 238.58 142.6 241.12 147.01C241.405 147.471 241.515 148.02 241.43 148.555C241.346 149.091 241.073 149.578 240.66 149.93C239 151.4 235.6 153.3 230 153C227.43 152.87 226 152.28 225.13 151.55Z" fill="#FFC3BD"/>
<path d="M210.51 153.89C210.987 152.45 211.828 151.158 212.951 150.138C214.074 149.119 215.441 148.406 216.92 148.07C218.818 147.769 220.731 147.568 222.65 147.47C222.85 147.441 223.055 147.463 223.245 147.533C223.435 147.603 223.604 147.719 223.738 147.87C223.872 148.022 223.966 148.205 224.012 148.402C224.057 148.599 224.053 148.805 224 149C220.65 161.44 215.87 186.33 217.35 217.16C217.357 217.352 217.324 217.543 217.255 217.722C217.185 217.901 217.08 218.064 216.945 218.2C216.81 218.337 216.649 218.445 216.471 218.517C216.293 218.589 216.102 218.624 215.91 218.62H207.51C207.146 218.626 206.793 218.493 206.523 218.248C206.254 218.002 206.088 217.663 206.06 217.3C203.53 179.63 208 160.86 210.51 153.89Z" fill="#263238"/>
<path d="M251.11 147.74C248.421 147.355 245.714 147.108 243 147C242.509 146.964 242.02 147.103 241.622 147.392C241.223 147.681 240.939 148.102 240.82 148.58C237.71 162.28 234.94 192.72 234.82 217.21C234.824 217.396 234.864 217.58 234.939 217.751C235.014 217.922 235.122 218.076 235.257 218.205C235.392 218.334 235.55 218.436 235.724 218.503C235.898 218.571 236.083 218.604 236.27 218.6H251.27C251.642 218.608 252.002 218.47 252.273 218.216C252.544 217.962 252.704 217.611 252.72 217.24C252.82 212.31 252.14 200.76 252.72 186.42C253.274 176.202 254.558 166.036 256.56 156C257.08 153.19 254.08 148.16 251.11 147.74Z" fill="#263238"/>
<path d="M256.38 152.09C259.59 156.93 262.51 161.78 265.27 166.87C266.63 169.42 267.97 172.01 269.18 174.73C269.78 176.09 270.37 177.48 270.92 178.95C271.526 180.54 271.995 182.18 272.32 183.85C272.566 185.067 272.62 186.316 272.48 187.55C272.317 188.549 272.059 189.53 271.71 190.48C271.139 192.029 270.44 193.528 269.62 194.96C268.148 197.558 266.508 200.056 264.71 202.44C261.251 207.056 257.468 211.42 253.39 215.5C252.919 215.972 252.291 216.255 251.625 216.294C250.959 216.333 250.302 216.127 249.778 215.713C249.255 215.3 248.902 214.708 248.786 214.051C248.67 213.394 248.8 212.718 249.15 212.15V212.09C252.06 207.4 255 202.62 257.66 197.88C258.98 195.52 260.24 193.12 261.25 190.8C262.26 188.48 263 185.94 262.48 185.87C262.161 184.806 261.774 183.764 261.32 182.75C260.82 181.61 260.25 180.43 259.65 179.26C258.43 176.91 257.12 174.52 255.75 172.17C253.01 167.45 250.09 162.69 247.2 158.08V158.02C246.414 156.803 246.143 155.323 246.448 153.906C246.753 152.489 247.608 151.251 248.825 150.465C250.042 149.679 251.522 149.408 252.939 149.713C254.356 150.018 255.594 150.873 256.38 152.09Z" fill="#FFC3BD"/>
<path d="M250.16 147.61C256.6 147.49 260.01 152.94 264.23 161.61C259.45 170.46 250.33 174.29 250.33 174.29C250.33 174.29 237.5 147.83 250.16 147.61Z" fill="#E0E0E0"/>
<path d="M246.86 211.89L243.15 213.07L250.02 218.29C250.02 218.29 255.64 215.37 253.88 212.72L252.74 212.21C250.884 211.391 248.793 211.277 246.86 211.89Z" fill="#FFC3BD"/>
<path d="M241.07 217.65L245.24 221.84C245.375 221.971 245.535 222.073 245.712 222.14C245.888 222.206 246.076 222.235 246.264 222.224C246.452 222.214 246.636 222.165 246.804 222.08C246.972 221.994 247.12 221.875 247.24 221.73L250.01 218.29L243.14 213.07L241 216C240.803 216.234 240.7 216.533 240.713 216.839C240.726 217.144 240.854 217.434 241.07 217.65Z" fill="#FFC3BD"/>
<path opacity="0.2" d="M229.75 138C229.941 138.841 230.081 139.692 230.17 140.55C232.65 141.18 236.17 138.34 236.5 135.93C236.542 134.873 236.475 133.814 236.3 132.77L229.75 138Z" fill="black"/>
<path d="M245.23 121.79C243.54 129.17 242.94 133.57 238.4 136.86C236.915 137.946 235.168 138.619 233.338 138.811C231.508 139.003 229.66 138.706 227.982 137.951C226.304 137.195 224.857 136.009 223.786 134.512C222.716 133.016 222.062 131.262 221.89 129.43C221.31 122.51 224.17 111.6 232.25 109.66C240.33 107.72 246.92 114.4 245.23 121.79Z" fill="#FFC3BD"/>
<path d="M241.81 128.25C239.67 128.36 237.39 120.81 242.11 117.17C241.36 117.58 239.31 116.83 239.67 115.42C238.28 116 232.2 115.75 233.67 113.28C230.58 114.08 223.84 112.74 223.12 109.79C222.4 106.84 225.88 106.74 226.42 107.13C224.89 104.99 224.92 101.85 228.98 100.71C233.04 99.57 239.16 105.44 239.16 105.44C238.52 103.89 240.77 102.64 243.1 103.97C245.43 105.3 246.52 109.08 246.52 109.08C246.52 107.94 251.96 109.47 249.38 114.25C252.05 115.25 253.27 116.67 253.1 119.14C252.93 121.61 251.24 121.75 251.24 121.75C251.598 122.639 251.647 123.623 251.381 124.543C251.114 125.464 250.547 126.269 249.77 126.83C247 129.06 244.58 126.44 241.81 128.25Z" fill="#263238"/>
<path d="M246.05 128.82C245.109 130.196 243.72 131.204 242.12 131.67C240.06 132.22 239.36 130.38 240.2 128.46C240.96 126.73 242.94 124.35 244.88 124.65C246.82 124.95 247.21 127.1 246.05 128.82Z" fill="#FFC3BD"/>
<path d="M233 121.49C232.9 122.09 232.48 122.54 232.07 122.49C231.66 122.44 231.4 121.9 231.5 121.29C231.6 120.68 232.02 120.29 232.43 120.29C232.84 120.29 233.05 120.88 233 121.49Z" fill="#263238"/>
<path d="M225.68 120.16C225.58 120.77 225.17 121.22 224.76 121.16C224.35 121.1 224.09 120.57 224.19 119.96C224.29 119.35 224.7 118.96 225.11 118.96C225.52 118.96 225.78 119.56 225.68 120.16Z" fill="#263238"/>
<path d="M228.57 121.52C227.505 123.28 226.202 124.885 224.7 126.29C225.089 126.656 225.552 126.934 226.057 127.106C226.562 127.279 227.099 127.341 227.63 127.29L228.57 121.52Z" fill="#ED847E"/>
<path d="M228.93 130.27C229.657 130.352 230.394 130.288 231.096 130.082C231.798 129.876 232.452 129.532 233.02 129.07C233.053 129.035 233.071 128.988 233.071 128.94C233.071 128.892 233.053 128.845 233.02 128.81C232.984 128.779 232.938 128.762 232.89 128.762C232.842 128.762 232.796 128.779 232.76 128.81C232.136 129.305 231.407 129.653 230.63 129.826C229.852 129.999 229.045 129.994 228.27 129.81C228.246 129.804 228.222 129.803 228.198 129.807C228.173 129.811 228.15 129.82 228.13 129.833C228.109 129.846 228.092 129.863 228.078 129.883C228.064 129.903 228.055 129.926 228.05 129.95C228.044 129.973 228.043 129.997 228.047 130.021C228.051 130.044 228.06 130.066 228.073 130.086C228.086 130.106 228.104 130.123 228.124 130.135C228.144 130.148 228.166 130.157 228.19 130.16C228.434 130.215 228.681 130.252 228.93 130.27Z" fill="#263238"/>
<path d="M233.3 117.33C233.24 117.346 233.185 117.377 233.14 117.42C233.105 117.453 233.077 117.492 233.058 117.536C233.039 117.58 233.03 117.627 233.03 117.675C233.03 117.723 233.039 117.77 233.058 117.814C233.077 117.858 233.105 117.897 233.14 117.93C233.529 118.365 234.018 118.7 234.565 118.906C235.112 119.111 235.7 119.181 236.28 119.11C236.328 119.105 236.374 119.091 236.417 119.067C236.459 119.043 236.495 119.011 236.525 118.973C236.554 118.934 236.575 118.89 236.586 118.843C236.597 118.796 236.598 118.748 236.59 118.7C236.581 118.652 236.564 118.606 236.537 118.565C236.511 118.524 236.477 118.489 236.437 118.461C236.397 118.433 236.352 118.413 236.305 118.403C236.257 118.392 236.208 118.391 236.16 118.4C235.701 118.44 235.24 118.371 234.814 118.197C234.388 118.023 234.009 117.75 233.71 117.4C233.655 117.352 233.587 117.32 233.515 117.308C233.442 117.295 233.368 117.303 233.3 117.33Z" fill="#263238"/>
<path d="M223.61 115.52C223.665 115.545 223.725 115.557 223.785 115.557C223.845 115.557 223.905 115.545 223.96 115.52C224.387 115.307 224.855 115.19 225.332 115.178C225.809 115.166 226.283 115.259 226.72 115.45C226.805 115.498 226.906 115.512 227.001 115.488C227.096 115.463 227.178 115.403 227.23 115.32C227.273 115.233 227.282 115.133 227.254 115.04C227.226 114.947 227.164 114.868 227.08 114.82C226.54 114.561 225.949 114.427 225.35 114.427C224.751 114.427 224.16 114.561 223.62 114.82C223.576 114.839 223.537 114.867 223.505 114.902C223.472 114.937 223.448 114.979 223.433 115.024C223.418 115.07 223.412 115.118 223.417 115.165C223.422 115.213 223.436 115.259 223.46 115.3C223.483 115.389 223.536 115.467 223.61 115.52Z" fill="#263238"/>
</svg>
