<svg width="470" height="245" viewBox="0 0 470 245" fill="none" xmlns="http://www.w3.org/2000/svg">
<path d="M234.89 232.75C341.972 232.75 428.78 226.585 428.78 218.98C428.78 211.375 341.972 205.21 234.89 205.21C127.808 205.21 41 211.375 41 218.98C41 226.585 127.808 232.75 234.89 232.75Z" fill="#F5F5F5"/>
<path d="M373.55 11H346.55C344.091 11 341.734 11.9767 339.995 13.7151C338.257 15.4536 337.28 17.8114 337.28 20.27V31.45C337.28 33.9086 338.257 36.2664 339.995 38.0049C341.734 39.7433 344.091 40.72 346.55 40.72H358.09L361.19 50.51L364.32 40.72H373.5C375.959 40.72 378.316 39.7433 380.055 38.0049C381.793 36.2664 382.77 33.9086 382.77 31.45V20.27C382.77 17.8201 381.8 15.4698 380.073 13.7327C378.345 11.9957 376 11.0132 373.55 11Z" fill="#ECC278"/>
<path d="M349.57 25.1801C349.57 25.5499 349.46 25.9114 349.255 26.219C349.049 26.5265 348.757 26.7662 348.416 26.9077C348.074 27.0493 347.698 27.0863 347.335 27.0141C346.973 26.942 346.639 26.7639 346.378 26.5023C346.116 26.2408 345.938 25.9076 345.866 25.5449C345.794 25.1821 345.831 24.8061 345.972 24.4644C346.114 24.1227 346.354 23.8307 346.661 23.6252C346.969 23.4197 347.33 23.3101 347.7 23.3101C347.946 23.3101 348.189 23.3584 348.416 23.4524C348.643 23.5464 348.849 23.6841 349.022 23.8578C349.196 24.0314 349.334 24.2376 349.428 24.4644C349.522 24.6913 349.57 24.9345 349.57 25.1801ZM355.95 23.3101C355.58 23.3101 355.219 23.4197 354.911 23.6252C354.604 23.8307 354.364 24.1227 354.222 24.4644C354.081 24.8061 354.044 25.1821 354.116 25.5449C354.188 25.9076 354.366 26.2408 354.628 26.5023C354.889 26.7639 355.223 26.942 355.585 27.0141C355.948 27.0863 356.324 27.0493 356.666 26.9077C357.007 26.7662 357.299 26.5265 357.505 26.219C357.71 25.9114 357.82 25.5499 357.82 25.1801C357.81 24.6911 357.608 24.2256 357.258 23.8835C356.909 23.5415 356.439 23.3499 355.95 23.3501V23.3101ZM364.2 23.3101C363.83 23.3101 363.469 23.4197 363.161 23.6252C362.854 23.8307 362.614 24.1227 362.472 24.4644C362.331 24.8061 362.294 25.1821 362.366 25.5449C362.438 25.9076 362.616 26.2408 362.878 26.5023C363.139 26.7639 363.473 26.942 363.835 27.0141C364.198 27.0863 364.574 27.0493 364.916 26.9077C365.257 26.7662 365.549 26.5265 365.755 26.219C365.96 25.9114 366.07 25.5499 366.07 25.1801C366.06 24.6911 365.858 24.2256 365.508 23.8835C365.159 23.5415 364.689 23.3499 364.2 23.3501V23.3101ZM372.45 23.3101C372.08 23.3101 371.719 23.4197 371.411 23.6252C371.104 23.8307 370.864 24.1227 370.722 24.4644C370.581 24.8061 370.544 25.1821 370.616 25.5449C370.688 25.9076 370.866 26.2408 371.128 26.5023C371.389 26.7639 371.723 26.942 372.085 27.0141C372.448 27.0863 372.824 27.0493 373.166 26.9077C373.507 26.7662 373.799 26.5265 374.005 26.219C374.21 25.9114 374.32 25.5499 374.32 25.1801C374.31 24.6911 374.108 24.2256 373.758 23.8835C373.409 23.5415 372.939 23.3499 372.45 23.3501V23.3101Z" fill="white"/>
<path d="M96.39 44H69.44C68.2227 44 67.0173 44.2398 65.8926 44.7056C64.7679 45.1715 63.746 45.8543 62.8852 46.7151C62.0244 47.5759 61.3415 48.5978 60.8757 49.7225C60.4098 50.8472 60.17 52.0526 60.17 53.27V64.45C60.17 66.9085 61.1467 69.2664 62.8852 71.0049C64.6236 72.7433 66.9815 73.72 69.44 73.72H80.98L84.08 83.5L87.21 73.72H96.39C98.8486 73.72 101.206 72.7433 102.945 71.0049C104.683 69.2664 105.66 66.9085 105.66 64.45V53.27C105.66 52.0526 105.42 50.8472 104.954 49.7225C104.489 48.5978 103.806 47.5759 102.945 46.7151C102.084 45.8543 101.062 45.1715 99.9375 44.7056C98.8128 44.2398 97.6074 44 96.39 44Z" fill="#ECC278"/>
<path d="M72.41 58.18C72.41 58.5499 72.3004 58.9114 72.0949 59.2189C71.8894 59.5265 71.5974 59.7662 71.2557 59.9077C70.914 60.0492 70.538 60.0863 70.1752 60.0141C69.8125 59.942 69.4793 59.7639 69.2178 59.5023C68.9562 59.2408 68.7781 58.9076 68.706 58.5449C68.6338 58.1821 68.6709 57.8061 68.8124 57.4644C68.9539 57.1227 69.1936 56.8307 69.5011 56.6252C69.8086 56.4197 70.1702 56.31 70.54 56.31C71.036 56.31 71.5116 56.507 71.8623 56.8577C72.213 57.2084 72.41 57.6841 72.41 58.18ZM78.79 56.31C78.4202 56.31 78.0586 56.4197 77.7511 56.6252C77.4436 56.8307 77.2039 57.1227 77.0624 57.4644C76.9209 57.8061 76.8838 58.1821 76.956 58.5449C77.0281 58.9076 77.2062 59.2408 77.4678 59.5023C77.7293 59.7639 78.0625 59.942 78.4252 60.0141C78.788 60.0863 79.164 60.0492 79.5057 59.9077C79.8474 59.7662 80.1394 59.5265 80.3449 59.2189C80.5504 58.9114 80.66 58.5499 80.66 58.18C80.6521 57.6902 80.4513 57.2233 80.1012 56.8806C79.7511 56.538 79.2799 56.3473 78.79 56.35V56.31ZM87.04 56.31C86.6694 56.3061 86.3059 56.4124 85.9957 56.6154C85.6856 56.8185 85.4428 57.1091 85.2982 57.4505C85.1536 57.7918 85.1137 58.1684 85.1836 58.5324C85.2534 58.8965 85.43 59.2316 85.6907 59.4951C85.9514 59.7586 86.2845 59.9387 86.6478 60.0125C87.0111 60.0863 87.3881 60.0505 87.731 59.9095C88.0738 59.7686 88.3671 59.5289 88.5734 59.221C88.7798 58.9131 88.89 58.5507 88.89 58.18C88.8822 57.6937 88.6842 57.2297 88.3383 56.8877C87.9925 56.5456 87.5265 56.3526 87.04 56.35V56.31ZM95.29 56.31C94.9202 56.31 94.5586 56.4197 94.2511 56.6252C93.9436 56.8307 93.7039 57.1227 93.5624 57.4644C93.4209 57.8061 93.3838 58.1821 93.456 58.5449C93.5281 58.9076 93.7062 59.2408 93.9678 59.5023C94.2293 59.7639 94.5625 59.942 94.9252 60.0141C95.288 60.0863 95.664 60.0492 96.0057 59.9077C96.3474 59.7662 96.6394 59.5265 96.8449 59.2189C97.0504 58.9114 97.16 58.5499 97.16 58.18C97.1521 57.6902 96.9513 57.2233 96.6012 56.8806C96.2511 56.538 95.7799 56.3473 95.29 56.35V56.31Z" fill="white"/>
<path d="M397.89 220.38H270.97C247.26 220.38 245.74 192.46 265.23 179.32C268.793 176.951 272.737 175.212 276.89 174.18C315.48 164.03 369.7 95.8 407.89 124.35L408 124.43C446.04 153.18 419.45 220.38 397.89 220.38Z" fill="#263238"/>
<path opacity="0.5" d="M397.89 220.38H270.97C247.26 220.38 245.74 192.46 265.23 179.32C268.793 176.951 272.737 175.212 276.89 174.18C315.48 164.03 369.7 95.8 407.89 124.35L408 124.43C446.04 153.18 419.45 220.38 397.89 220.38Z" fill="white"/>
<path opacity="0.2" d="M407.79 124.3C404.59 124.09 400.71 124.99 396.53 128.49C385.68 137.59 402.18 181.4 376.23 199.62C361.75 209.79 299.28 214.27 278.43 201.8C263.04 192.59 262.84 186.8 265.23 179.32C268.793 176.951 272.737 175.212 276.89 174.18C315.43 163.98 369.65 95.7499 407.79 124.3Z" fill="black"/>
<path d="M309.11 116.04L301.54 110.71L307.2 104.92C307.2 104.92 313.01 107.92 312.46 113.27L309.11 116.04Z" fill="#E4897B"/>
<path d="M298.57 104.83L303.82 101.53L307.2 104.92L301.54 110.71L298.57 104.83Z" fill="#E4897B"/>
<path d="M346.35 102.27C339.18 104.38 335.65 116.99 329.73 128.9L312.5 111.78L307.02 116.64C307.02 116.64 322.8 141.71 330.25 141.71C339.55 141.71 349.2 115.88 349.2 115.88L346.35 102.27Z" fill="#263238"/>
<path opacity="0.1" d="M349.2 115.88C349.2 115.88 347.67 119.97 345.2 124.88C342.85 129.66 339.65 135.23 336.2 138.6C334.25 140.49 332.2 141.69 330.2 141.69C322.75 141.69 306.97 116.62 306.97 116.62L312.45 111.76L329.68 128.88C335.6 116.97 339.12 104.36 346.31 102.25L349.2 115.88Z" fill="white"/>
<path opacity="0.2" d="M345.24 124.9C342.89 129.68 339.69 135.25 336.24 138.62C336.61 127.19 342.24 116.04 342.24 116.04C343.792 118.777 344.81 121.783 345.24 124.9Z" fill="black"/>
<path d="M339.49 171.93C339.49 171.93 278.64 163.19 275.42 176.54C272.03 190.66 320.89 200.18 350.09 201.18C379.29 202.18 387.67 195.18 382.98 159.18H342.98L339.49 171.93Z" fill="#407BFF"/>
<path opacity="0.6" d="M339.49 171.93C339.49 171.93 278.64 163.19 275.42 176.54C272.03 190.66 320.89 200.18 350.09 201.18C379.29 202.18 387.67 195.18 382.98 159.18H342.98L339.49 171.93Z" fill="white"/>
<path d="M305.6 199.77L292.85 199.78L286.73 199.79L286 193.34L291.66 192.58L305.49 190.74L305.6 199.77Z" fill="#E4897B"/>
<path d="M287.38 192.53L288.93 199.89C288.952 199.987 288.954 200.087 288.935 200.184C288.917 200.282 288.879 200.374 288.824 200.457C288.769 200.539 288.698 200.609 288.614 200.663C288.531 200.717 288.438 200.753 288.34 200.77L284.67 201.43C284.67 201.43 279.8 202.67 278.43 201.8C274.43 199.24 270.59 183.06 272.22 181.86C272.81 181.42 273.84 182.09 274.36 182.62C276 184.29 279.49 188.96 280.88 190.34C282.49 191.96 285.36 192.01 286.62 191.94C286.796 191.932 286.97 191.986 287.109 192.095C287.248 192.203 287.344 192.357 287.38 192.53Z" fill="#263238"/>
<path opacity="0.2" d="M305.6 199.77L292.85 199.78L291.66 192.58L305.49 190.74L305.6 199.77Z" fill="black"/>
<path d="M324.24 188.39L336.34 192.42L342.15 194.35L340.8 200.69L335.19 199.62L321.49 197L324.24 188.39Z" fill="#E4897B"/>
<path d="M339.24 201.02L340.09 193.55C340.102 193.452 340.134 193.358 340.183 193.272C340.232 193.186 340.297 193.111 340.375 193.051C340.453 192.99 340.542 192.946 340.638 192.92C340.733 192.894 340.832 192.887 340.93 192.9L344.62 193.44C344.62 193.44 349.62 193.8 350.62 195.06C353.62 198.75 352.14 215.32 350.22 215.94C349.51 216.17 348.75 215.21 348.42 214.55C347.42 212.44 345.56 206.9 344.68 205.16C343.68 203.11 340.95 202.16 339.74 201.82C339.575 201.767 339.435 201.658 339.343 201.512C339.252 201.365 339.215 201.191 339.24 201.02Z" fill="#263238"/>
<path opacity="0.2" d="M324.24 188.39L336.34 192.42L335.19 199.62L321.49 197L324.24 188.39Z" fill="black"/>
<path d="M333.09 200.74L329.64 201.07L331.7 189.13L335.66 191.22L333.09 200.74Z" fill="#407BFF"/>
<path opacity="0.6" d="M333.09 200.74L329.64 201.07L331.7 189.13L335.66 191.22L333.09 200.74Z" fill="white"/>
<path d="M344.64 205.07C344.73 205.611 344.649 206.167 344.41 206.66C344.313 206.808 344.179 206.927 344.021 207.006C343.863 207.085 343.686 207.121 343.51 207.11C343.403 207.115 343.297 207.091 343.203 207.042C343.108 206.993 343.028 206.92 342.97 206.83C342.45 205.95 343.67 203.24 343.82 202.94C343.829 202.906 343.851 202.877 343.881 202.859C343.91 202.84 343.946 202.834 343.98 202.84C344.018 202.843 344.054 202.859 344.083 202.884C344.112 202.909 344.132 202.943 344.14 202.98C344.377 203.658 344.545 204.358 344.64 205.07ZM343.2 206.37C343.207 206.458 343.234 206.544 343.28 206.62C343.299 206.658 343.329 206.69 343.367 206.709C343.405 206.729 343.448 206.736 343.49 206.73C343.611 206.744 343.734 206.724 343.844 206.67C343.954 206.617 344.046 206.534 344.11 206.43C344.401 205.479 344.348 204.456 343.96 203.54C343.539 204.43 343.281 205.389 343.2 206.37Z" fill="#407BFF"/>
<path d="M344.17 203V203.08C343.84 203.95 342.34 205.67 341.49 205.55C341.351 205.526 341.224 205.455 341.13 205.35C341.035 205.245 340.979 205.111 340.97 204.97C340.932 204.83 340.924 204.683 340.949 204.54C340.973 204.396 341.028 204.26 341.11 204.14C341.73 203.14 343.88 202.82 344 202.83C344.033 202.824 344.068 202.828 344.098 202.842C344.129 202.857 344.154 202.88 344.17 202.91C344.178 202.939 344.178 202.97 344.17 203ZM341.29 204.83V204.91C341.35 205.16 341.45 205.17 341.5 205.19C342 205.26 343.15 204.14 343.65 203.28C342.797 203.384 342.002 203.767 341.39 204.37C341.305 204.507 341.266 204.669 341.28 204.83H341.29Z" fill="#407BFF"/>
<path d="M294.01 191.65C294.01 191.65 350.62 169.65 367.96 173.33C385.3 177.01 385.38 186.08 376.59 194.54C367.8 203 354.67 199.74 354.67 199.74C354.67 199.74 364.99 193.56 364.27 189.74C363.55 185.92 356.99 194.65 356.99 194.65C356.99 194.65 322.78 203.02 294.53 200.81L294.01 191.65Z" fill="#407BFF"/>
<path d="M281.27 190.46C280.941 190.024 280.759 189.496 280.75 188.95C280.766 188.774 280.828 188.606 280.93 188.462C281.031 188.318 281.17 188.203 281.33 188.13C281.423 188.078 281.528 188.051 281.635 188.051C281.742 188.051 281.847 188.078 281.94 188.13C282.8 188.68 282.94 191.65 282.94 191.99C282.944 192.024 282.937 192.059 282.918 192.088C282.9 192.117 282.872 192.139 282.84 192.15C282.809 192.171 282.772 192.182 282.735 192.182C282.698 192.182 282.661 192.171 282.63 192.15C282.119 191.636 281.663 191.069 281.27 190.46ZM281.95 188.64C281.899 188.568 281.835 188.507 281.76 188.46C281.726 188.436 281.686 188.424 281.645 188.424C281.604 188.424 281.564 188.436 281.53 188.46C281.415 188.502 281.314 188.576 281.239 188.673C281.165 188.771 281.12 188.888 281.11 189.01C281.289 189.988 281.81 190.871 282.58 191.5C282.541 190.517 282.328 189.548 281.95 188.64Z" fill="#407BFF"/>
<path d="M282.63 192.08V191.99C282.53 191.07 283.06 188.85 283.88 188.56C284.015 188.518 284.161 188.522 284.294 188.573C284.426 188.624 284.538 188.718 284.61 188.84C284.798 189.062 284.892 189.35 284.87 189.64C284.77 190.81 283.01 192.08 282.87 192.14C282.842 192.159 282.809 192.169 282.775 192.169C282.741 192.169 282.708 192.159 282.68 192.14C282.659 192.124 282.641 192.104 282.63 192.08ZM284.35 189.13V189.06C284.19 188.87 284.09 188.91 284.04 188.92C283.56 189.08 283.04 190.6 283.04 191.6C283.53 191.19 284.48 190.33 284.54 189.6C284.55 189.438 284.508 189.277 284.42 189.14L284.35 189.13Z" fill="#407BFF"/>
<path opacity="0.7" d="M294.01 191.65C294.01 191.65 350.62 169.65 367.96 173.33C385.3 177.01 385.38 186.08 376.59 194.54C367.8 203 354.67 199.74 354.67 199.74C354.67 199.74 364.99 193.56 364.27 189.74C363.55 185.92 356.99 194.65 356.99 194.65C356.99 194.65 322.78 203.02 294.53 200.81L294.01 191.65Z" fill="white"/>
<path d="M293.32 191.48L296.5 190.02L298.33 201.93L293.91 201.21L293.32 191.48Z" fill="#407BFF"/>
<path opacity="0.6" d="M293.32 191.48L296.5 190.02L298.33 201.93L293.91 201.21L293.32 191.48Z" fill="white"/>
<path d="M387 104.18C380.89 138.18 383.11 160.18 383.11 160.18C383.11 160.18 354.68 159.79 343 159.13C336.77 117.92 346.35 102.26 346.35 102.26C349.404 101.648 352.494 101.224 355.6 100.99C356.25 100.94 356.92 100.91 357.6 100.88C363.11 100.876 368.615 101.187 374.09 101.81C375.09 101.92 376.18 102.06 377.2 102.21C382.41 103 387 104.18 387 104.18Z" fill="#263238"/>
<path opacity="0.1" d="M387 104.18C386.24 108.4 385.61 112.44 385.09 116.26C384.27 122.26 383.72 127.82 383.36 132.76C383.25 134.25 383.15 135.7 383.08 137.08C382.79 142.14 382.71 146.47 382.72 149.97C382.72 156.55 383.11 160.18 383.11 160.18C383.11 160.18 354.68 159.79 343 159.13C336.76 117.92 346.36 102.26 346.36 102.26C349.411 101.647 352.497 101.223 355.6 100.99C356.25 100.94 356.92 100.91 357.6 100.88C363.11 100.871 368.616 101.182 374.09 101.81C375.09 101.92 376.18 102.06 377.2 102.21C382.41 102.99 387 104.18 387 104.18Z" fill="white"/>
<path opacity="0.2" d="M361.61 141.71C368.895 140.844 376.084 139.298 383.08 137.09C382.79 142.15 382.71 146.48 382.72 149.98C369.15 151.23 363.61 148.62 363.61 148.62L361.61 141.71Z" fill="black"/>
<path opacity="0.2" d="M385.09 116.27C384.27 122.27 383.72 127.83 383.36 132.77C379.47 124.85 382.36 115.35 382.36 115.35L385.09 116.27Z" fill="black"/>
<path d="M363.15 155.67H342.47C342.068 155.664 341.683 155.507 341.391 155.231C341.099 154.956 340.92 154.581 340.89 154.18L338.01 126.73C337.99 126.546 338.01 126.359 338.067 126.183C338.125 126.007 338.219 125.845 338.344 125.708C338.469 125.571 338.621 125.462 338.791 125.388C338.961 125.314 339.145 125.277 339.33 125.28H360.01C360.404 125.288 360.781 125.44 361.07 125.707C361.36 125.974 361.541 126.338 361.58 126.73L364.47 154.18C364.496 154.367 364.481 154.558 364.427 154.739C364.372 154.92 364.279 155.087 364.153 155.229C364.028 155.37 363.873 155.483 363.7 155.559C363.527 155.635 363.339 155.673 363.15 155.67Z" fill="#263238"/>
<path opacity="0.6" d="M363.15 155.67H342.47C342.068 155.664 341.683 155.507 341.391 155.231C341.099 154.956 340.92 154.581 340.89 154.18L338.01 126.73C337.99 126.546 338.01 126.359 338.067 126.183C338.125 126.007 338.219 125.845 338.344 125.708C338.469 125.571 338.621 125.462 338.791 125.388C338.961 125.314 339.145 125.277 339.33 125.28H360.01C360.404 125.288 360.781 125.44 361.07 125.707C361.36 125.974 361.541 126.338 361.58 126.73L364.47 154.18C364.496 154.367 364.481 154.558 364.427 154.739C364.372 154.92 364.279 155.087 364.153 155.229C364.028 155.37 363.873 155.483 363.7 155.559C363.527 155.635 363.339 155.673 363.15 155.67Z" fill="white"/>
<path opacity="0.2" d="M362.29 155.67H342.47C342.068 155.664 341.683 155.507 341.391 155.231C341.099 154.956 340.92 154.581 340.89 154.18L338.01 126.73C337.99 126.546 338.01 126.359 338.067 126.183C338.125 126.007 338.219 125.845 338.344 125.708C338.469 125.571 338.621 125.462 338.791 125.388C338.961 125.314 339.145 125.277 339.33 125.28H359.15C359.544 125.288 359.921 125.44 360.21 125.707C360.5 125.974 360.681 126.338 360.72 126.73L363.61 154.18C363.636 154.367 363.621 154.558 363.567 154.739C363.512 154.92 363.419 155.087 363.293 155.229C363.168 155.37 363.013 155.483 362.84 155.559C362.667 155.635 362.479 155.673 362.29 155.67Z" fill="white"/>
<path d="M350.23 138.25C349.945 138.248 349.663 138.306 349.402 138.422C349.142 138.538 348.909 138.708 348.72 138.921C348.53 139.134 348.388 139.385 348.304 139.658C348.22 139.93 348.194 140.217 348.23 140.5C348.289 141.107 348.569 141.67 349.018 142.084C349.466 142.497 350.05 142.73 350.66 142.74C350.944 142.742 351.225 142.683 351.485 142.568C351.745 142.453 351.977 142.284 352.166 142.072C352.356 141.86 352.498 141.61 352.583 141.339C352.668 141.068 352.694 140.782 352.66 140.5C352.05 140.488 351.465 140.252 351.017 139.837C350.569 139.423 350.289 138.858 350.23 138.25Z" fill="#263238"/>
<path opacity="0.3" d="M354.71 127.5H343.78C343.512 127.496 343.249 127.417 343.023 127.273C342.797 127.128 342.616 126.922 342.5 126.68L341.85 125.32H356.27L355.89 126.68C355.816 126.93 355.658 127.148 355.444 127.297C355.229 127.446 354.971 127.518 354.71 127.5Z" fill="black"/>
<path d="M361.13 140.83L356.35 140.44L356.55 146.8L360.55 148.9L369.77 148.06L370.52 143.77C367.49 139.33 361.13 140.83 361.13 140.83Z" fill="#E4897B"/>
<path d="M387 104.18C391.91 105.66 398.87 134.18 397.76 140.48C396.65 146.78 384.54 149.48 369.15 149.13V141.69L387 136.48L384 125.48C384 125.48 381.52 117.39 382.63 111.73C383.239 108.81 384.771 106.163 387 104.18Z" fill="#263238"/>
<path opacity="0.1" d="M387 104.18C391.91 105.66 398.87 134.18 397.76 140.48C396.65 146.78 384.54 149.48 369.15 149.13V141.69L387 136.48L384 125.48C384 125.48 381.52 117.39 382.63 111.73C383.239 108.81 384.771 106.163 387 104.18Z" fill="white"/>
<path d="M371.71 101.49C369.22 104.09 365.31 106.27 359.04 106.04C354.23 105.85 353.56 102.83 354.4 101.17C357.32 100.57 358.64 99.3 359.05 97.68C359.46 96.06 358.89 93.88 358.05 91.86L366.16 85.03L367.53 83.87C367.53 84.26 367.48 84.67 367.46 85.1C367.366 86.6853 367.366 88.2747 367.46 89.86C367.73 94.33 368.79 99.18 371.71 101.49Z" fill="#E4897B"/>
<path opacity="0.2" d="M367.47 89.86C365.96 92.95 363.31 96.68 359.05 97.68C359.49 95.96 358.89 93.88 358.05 91.86L366.16 85.03C366.59 85.03 367.03 85.03 367.46 85.1C367.369 86.6855 367.372 88.275 367.47 89.86Z" fill="black"/>
<path d="M348.89 71.45C347.7 74.17 347.55 80.01 351.69 78.56C355.83 77.11 350.89 66.78 348.89 71.45Z" fill="#263238"/>
<path d="M368.72 77.48C368.36 84.76 368.53 89.05 364.89 92.8C359.41 98.44 350.37 95.12 348.53 87.86C346.89 81.31 347.75 70.5 354.85 67.58C356.425 66.9349 358.138 66.6995 359.828 66.8958C361.519 67.0921 363.132 67.7136 364.517 68.7023C365.902 69.6911 367.014 71.0147 367.749 72.5497C368.484 74.0847 368.818 75.7809 368.72 77.48Z" fill="#E4897B"/>
<path d="M357.68 79.5399C357.68 80.1299 357.38 80.62 356.99 80.62C356.6 80.62 356.28 80.1399 356.27 79.5399C356.26 78.9399 356.58 78.47 356.96 78.47C357.34 78.47 357.67 78.9499 357.68 79.5399Z" fill="#263238"/>
<path d="M350.96 79.56C350.96 80.15 350.66 80.63 350.27 80.63C349.88 80.63 349.56 80.15 349.56 79.56C349.56 78.97 349.86 78.49 350.25 78.49C350.64 78.49 350.96 78.96 350.96 79.56Z" fill="#263238"/>
<path d="M353.1 79.85C352.393 81.6066 351.444 83.2559 350.28 84.75C350.693 85.0215 351.158 85.2035 351.645 85.2845C352.133 85.3654 352.632 85.3435 353.11 85.22L353.1 79.85Z" fill="#DE5753"/>
<path d="M359.72 77.3699C359.66 77.3788 359.599 77.3715 359.542 77.3486C359.486 77.3258 359.437 77.2882 359.4 77.2399C359.141 76.8846 358.803 76.5947 358.413 76.3933C358.022 76.1919 357.59 76.0846 357.15 76.0799C357.058 76.0856 356.967 76.0556 356.896 75.996C356.825 75.9364 356.78 75.8519 356.77 75.7599C356.766 75.7139 356.771 75.6676 356.785 75.6235C356.799 75.5795 356.821 75.5387 356.851 75.5033C356.881 75.468 356.917 75.4389 356.958 75.4177C356.999 75.3966 357.044 75.3837 357.09 75.38C357.646 75.3764 358.194 75.5041 358.691 75.7525C359.188 76.001 359.62 76.3633 359.95 76.8099C360.007 76.883 360.032 76.9755 360.021 77.0673C360.01 77.1592 359.963 77.2428 359.89 77.2999C359.84 77.3376 359.782 77.3617 359.72 77.3699Z" fill="#263238"/>
<path d="M348.04 77.2599C347.975 77.2788 347.905 77.2788 347.84 77.2599C347.799 77.2396 347.761 77.2114 347.731 77.1768C347.7 77.1422 347.677 77.1018 347.662 77.0582C347.647 77.0145 347.641 76.9683 347.644 76.9223C347.647 76.8762 347.659 76.8312 347.68 76.7899C347.901 76.2813 348.243 75.8338 348.675 75.4855C349.106 75.1372 349.616 74.8986 350.16 74.7899C350.206 74.7843 350.253 74.788 350.297 74.8006C350.342 74.8132 350.383 74.8345 350.42 74.8634C350.456 74.8922 350.486 74.928 350.509 74.9686C350.531 75.0092 350.545 75.0538 350.55 75.0999C350.557 75.1446 350.555 75.1903 350.544 75.2343C350.533 75.2782 350.514 75.3196 350.487 75.3559C350.46 75.3922 350.426 75.4228 350.387 75.4458C350.348 75.4688 350.305 75.4838 350.26 75.4899C349.831 75.5706 349.428 75.7562 349.088 76.0301C348.748 76.304 348.48 76.6578 348.31 77.0599C348.284 77.1122 348.246 77.1576 348.199 77.1923C348.152 77.2271 348.098 77.2502 348.04 77.2599Z" fill="#263238"/>
<path d="M357.28 71.6399C357.28 71.6399 359.28 70.2 360.2 71.75C361.12 73.3 361.06 77.43 361.06 77.43L361.46 76.6999C361.46 76.6999 364.05 85.9 367.8 83.58C371.55 81.26 377.06 71.92 368.3 67.16C368.3 67.16 367.37 64.94 361.58 63.84C355.79 62.74 348.79 66.32 347.58 70.15C346.37 73.98 348.06 76.15 348.06 76.15C348.246 75.3163 348.626 74.5384 349.17 73.88C349.248 74.2702 349.421 74.6352 349.674 74.9423C349.927 75.2494 350.252 75.4891 350.62 75.6399C350.561 74.8574 350.724 74.0741 351.09 73.38C351.281 74.0604 351.623 74.6893 352.09 75.22C352.51 71.28 355.19 70.4799 356.03 70.5099C356.331 70.5432 356.613 70.6702 356.838 70.873C357.062 71.0759 357.217 71.3442 357.28 71.6399Z" fill="#263238"/>
<path d="M371.61 83.5099C371.342 84.3762 370.906 85.181 370.326 85.8778C369.746 86.5746 369.033 87.1497 368.23 87.5699C366.07 88.6799 364.49 86.8499 364.67 84.5699C364.83 82.4999 366.14 79.4299 368.51 79.2799C369.028 79.2565 369.545 79.3616 370.013 79.5857C370.481 79.8098 370.886 80.1461 371.193 80.5647C371.5 80.9833 371.698 81.4712 371.771 81.985C371.844 82.4988 371.788 83.0226 371.61 83.5099Z" fill="#E4897B"/>
<path d="M353.34 87.66C353.964 88.3132 354.539 89.0118 355.06 89.75L355.49 89.5399C357.42 88.5399 358 87.4699 358.05 86.5399C358.063 86.0915 357.97 85.6462 357.78 85.24C357.678 85.0084 357.544 84.7929 357.38 84.6C356.459 85.7347 355.302 86.6559 353.99 87.3C353.6 87.54 353.34 87.66 353.34 87.66Z" fill="#263238"/>
<path d="M353.99 87.32L354.52 87.92C356.33 87 357.52 86.1 357.78 85.26C357.678 85.0285 357.543 84.8129 357.38 84.62C356.459 85.7547 355.302 86.6759 353.99 87.32Z" fill="white"/>
<path d="M355.49 89.5399C357.42 88.5399 358 87.4699 358.05 86.5399C357.323 86.9259 356.67 87.437 356.12 88.0499C355.757 88.4673 355.537 88.9891 355.49 89.5399Z" fill="#A24E3F"/>
<path d="M179.3 111.36L179.82 116.91C179.82 116.91 212.3 121.85 217.5 126.91C222.7 131.97 241.15 212 241.15 212L233.71 213C233.71 213 207.89 154 206.51 145.46C206.51 145.46 183.77 146.31 168.25 146.31C152.73 146.31 150.88 111.31 150.88 111.31L179.3 111.36Z" fill="#407BFF"/>
<path opacity="0.3" d="M241.15 212.01L233.71 213.01C233.71 213.01 223.15 188.88 215.18 169.25C210.67 158.18 207 148.54 206.51 145.46C206.51 145.46 190.77 146.04 176.51 146.24C173.63 146.24 170.82 146.3 168.21 146.3C152.69 146.3 150.84 111.3 150.84 111.3H179.26L179.78 116.85C179.78 116.85 212.27 121.78 217.46 126.85C222.65 131.92 241.15 212.01 241.15 212.01Z" fill="white"/>
<path d="M246.89 219.18C241.89 219.18 241.22 219.1 238.4 219C235.99 218.92 235.4 219.22 233.48 219.18C231.86 219.18 231.92 217.59 232.42 215.81C232.67 214.91 233.05 213.02 233.42 211.58L240.76 211.04C241.76 213.04 244.12 215.83 246.94 216.21C249.76 216.59 248.89 219.18 246.89 219.18Z" fill="#263238"/>
<path opacity="0.2" d="M215.18 169.29C210.67 158.22 207 148.58 206.51 145.5C206.51 145.5 190.77 146.08 176.51 146.28L174.97 119.09C174.97 119.09 195.05 121.97 208.55 133.6C210.26 135.04 213.59 157.31 215.18 169.29Z" fill="black"/>
<path d="M208.18 151.51H150.07V147.94C150.07 146.749 150.543 145.607 151.385 144.765C152.227 143.923 153.369 143.45 154.56 143.45H203.69C204.881 143.45 206.023 143.923 206.865 144.765C207.707 145.607 208.18 146.749 208.18 147.94V151.51Z" fill="#263238"/>
<path opacity="0.2" d="M208.18 151.51H150.07V147.94C150.07 146.749 150.543 145.607 151.385 144.765C152.227 143.923 153.369 143.45 154.56 143.45H203.69C204.881 143.45 206.023 143.923 206.865 144.765C207.707 145.607 208.18 146.749 208.18 147.94V151.51Z" fill="white"/>
<path d="M206.16 203.76L183.76 201.81V172.39H175.89V201.8L153.41 203.8C152.454 203.894 151.568 204.34 150.923 205.052C150.278 205.764 149.92 206.69 149.92 207.65V210.65H209.66V207.65C209.669 206.681 209.315 205.744 208.667 205.024C208.019 204.303 207.124 203.852 206.16 203.76Z" fill="#263238"/>
<path d="M157.16 214.3C157.16 215.318 156.858 216.314 156.292 217.161C155.726 218.008 154.922 218.668 153.981 219.058C153.04 219.448 152.004 219.55 151.005 219.351C150.006 219.152 149.089 218.662 148.368 217.941C147.648 217.221 147.158 216.304 146.959 215.305C146.76 214.306 146.862 213.27 147.252 212.329C147.642 211.388 148.302 210.584 149.149 210.018C149.996 209.452 150.991 209.15 152.01 209.15C153.376 209.15 154.686 209.692 155.652 210.658C156.617 211.624 157.16 212.934 157.16 214.3Z" fill="#263238"/>
<path d="M207.55 219.45C210.394 219.45 212.7 217.144 212.7 214.3C212.7 211.456 210.394 209.15 207.55 209.15C204.706 209.15 202.4 211.456 202.4 214.3C202.4 217.144 204.706 219.45 207.55 219.45Z" fill="#263238"/>
<path d="M174.53 149.59H185.12V174.68C185.12 175.664 184.729 176.608 184.033 177.303C183.338 177.999 182.394 178.39 181.41 178.39H178.25C177.266 178.39 176.322 177.999 175.627 177.303C174.931 176.608 174.54 175.664 174.54 174.68V149.59H174.53Z" fill="#263238"/>
<path opacity="0.2" d="M174.53 149.59H185.12V174.68C185.12 175.664 184.729 176.608 184.033 177.303C183.338 177.999 182.394 178.39 181.41 178.39H178.25C177.266 178.39 176.322 177.999 175.627 177.303C174.931 176.608 174.54 175.664 174.54 174.68V149.59H174.53Z" fill="white"/>
<path d="M149.66 152.44H208.58C209.58 152.44 210.39 151.63 210.39 150.63V150.22C210.39 149.22 209.58 148.41 208.58 148.41H149.66C148.66 148.41 147.85 149.22 147.85 150.22V150.63C147.85 151.63 148.66 152.44 149.66 152.44Z" fill="#263238"/>
<path opacity="0.2" d="M157.16 214.3C157.16 215.318 156.858 216.314 156.292 217.161C155.726 218.008 154.922 218.668 153.981 219.058C153.04 219.448 152.004 219.55 151.005 219.351C150.006 219.152 149.089 218.662 148.368 217.941C147.648 217.221 147.158 216.304 146.959 215.305C146.76 214.306 146.862 213.27 147.252 212.329C147.642 211.388 148.302 210.584 149.149 210.018C149.996 209.452 150.991 209.15 152.01 209.15C153.376 209.15 154.686 209.692 155.652 210.658C156.617 211.624 157.16 212.934 157.16 214.3Z" fill="white"/>
<path opacity="0.2" d="M207.55 219.45C210.394 219.45 212.7 217.144 212.7 214.3C212.7 211.456 210.394 209.15 207.55 209.15C204.706 209.15 202.4 211.456 202.4 214.3C202.4 217.144 204.706 219.45 207.55 219.45Z" fill="white"/>
<path d="M213.12 102.04H195.17C189.91 102.04 186.11 97.3099 186.69 91.4899L187.45 83.7099C188.03 77.8799 192.75 73.1499 198.01 73.1499H215.96C221.22 73.1499 225.02 77.8799 224.45 83.7099L223.68 91.4899C223.11 97.3099 218.38 102.04 213.12 102.04Z" fill="#263238"/>
<path opacity="0.2" d="M213.12 102.04H195.17C189.91 102.04 186.11 97.3099 186.69 91.4899L187.45 83.7099C188.03 77.8799 192.75 73.1499 198.01 73.1499H215.96C221.22 73.1499 225.02 77.8799 224.45 83.7099L223.68 91.4899C223.11 97.3099 218.38 102.04 213.12 102.04Z" fill="white"/>
<path d="M211.47 98.2499H200.89C197.78 98.2499 195.53 95.4599 195.89 92.0099L196.35 87.4199C196.68 83.9699 199.48 81.1799 202.59 81.1799H213.19C216.3 81.1799 218.55 83.9699 218.19 87.4199L217.73 92.0099C217.37 95.4599 214.58 98.2499 211.47 98.2499Z" fill="#263238"/>
<path d="M203.05 91.3899C203.05 91.3899 200.63 140.04 190.15 148.39H201.36C201.36 148.39 211.36 131.82 212.09 91.3899H203.05Z" fill="#263238"/>
<path d="M212.07 71.1199L214 70.1199C214.362 69.9347 214.763 69.8381 215.17 69.8381C215.577 69.8381 215.978 69.9347 216.34 70.1199L219.8 71.8199C220.481 72.1548 221.072 72.6484 221.523 73.2592C221.974 73.8701 222.271 74.5802 222.39 75.3299L222.55 76.2799C219.46 78.2199 214.7 78.0399 214.7 78.0399L213.33 78.1499C213.051 78.1788 212.768 78.152 212.499 78.0708C212.23 77.9897 211.98 77.8559 211.763 77.6773C211.547 77.4986 211.367 77.2787 211.236 77.0302C211.105 76.7817 211.025 76.5097 211 76.2299L210.76 73.5299C210.714 73.0435 210.815 72.5546 211.048 72.1254C211.281 71.6962 211.637 71.3461 212.07 71.1199Z" fill="#B97964"/>
<path opacity="0.2" d="M212.07 71.1199L214 70.1199C214.362 69.9347 214.763 69.8381 215.17 69.8381C215.577 69.8381 215.978 69.9347 216.34 70.1199L219.8 71.8199C220.481 72.1548 221.072 72.6484 221.523 73.2592C221.974 73.8701 222.271 74.5802 222.39 75.3299L222.55 76.2799C219.46 78.2199 214.7 78.0399 214.7 78.0399L213.33 78.1499C213.051 78.1788 212.768 78.152 212.499 78.0708C212.23 77.9897 211.98 77.8559 211.763 77.6773C211.547 77.4986 211.367 77.2787 211.236 77.0302C211.105 76.7817 211.025 76.5097 211 76.2299L210.76 73.5299C210.714 73.0435 210.815 72.5546 211.048 72.1254C211.281 71.6962 211.637 71.3461 212.07 71.1199Z" fill="black"/>
<path d="M197.89 73.5L190.89 82.35H184.23L185.1 70C190.14 70.97 197.89 73.5 197.89 73.5Z" fill="#ECC278"/>
<path opacity="0.2" d="M190.3 82.35H184.54L188.12 73.5C188.12 73.5 190.17 76.61 190.3 82.35Z" fill="black"/>
<path d="M179.73 114.7L150.42 111.98C151.34 108.86 152.15 105.8 152.83 102.85C153.69 99.24 154.37 95.78 154.91 92.55C155.45 89.32 155.91 86.32 156.23 83.6L156.32 82.83C156.32 82.4 156.42 81.98 156.46 81.58C156.75 78.95 156.93 76.66 157.05 74.77C157.3 71.08 157.3 68.95 157.3 68.95C167.342 67.0269 177.706 67.6422 187.45 70.74C191.81 83.02 179.73 114.7 179.73 114.7Z" fill="#ECC278"/>
<path d="M179.63 72.7C179.185 73.6224 178.504 74.411 177.657 74.9862C176.809 75.5613 175.825 75.9027 174.803 75.9757C173.782 76.0488 172.759 75.8509 171.838 75.4022C170.918 74.9534 170.132 74.2697 169.56 73.42L168.29 71.53L166.73 69.18C169.35 67.63 170.38 62.67 170.73 58.41C170.84 57.07 170.88 55.81 170.88 54.74L177.46 63.74C177 64.6931 176.664 65.7013 176.46 66.74C176.377 67.168 176.343 67.6042 176.36 68.04C176.37 69.79 177.24 71.41 179.63 72.7Z" fill="#B97964"/>
<path opacity="0.2" d="M177.44 63.79C176.98 64.7431 176.644 65.7513 176.44 66.79C174.71 69.01 172.02 71.36 168.31 71.51L166.73 69.18C169.35 67.63 170.38 62.67 170.73 58.41C170.84 57.07 170.88 55.81 170.88 54.74L177.44 63.79Z" fill="black"/>
<path d="M161.63 48.76C161.63 48.76 158.38 47.54 159.34 45.29C160.3 43.04 161.46 43.06 161.46 43.06C160.969 42.14 160.702 41.117 160.681 40.0743C160.66 39.0317 160.886 37.9988 161.34 37.06C162.95 34.06 166.51 35.28 166.51 35.28C166.524 34.3376 166.859 33.4281 167.458 32.7011C168.058 31.9741 168.887 31.4729 169.81 31.28C170.752 31.1242 171.718 31.2801 172.563 31.7242C173.408 32.1682 174.084 32.876 174.49 33.74C174.49 33.74 176.73 30.83 180.01 31.63C183.29 32.43 183.95 37 183.95 37C184.846 36.7078 185.82 36.7724 186.669 37.1804C187.519 37.5883 188.178 38.3081 188.51 39.19C188.956 40.1104 189.142 41.1351 189.049 42.1537C188.955 43.1722 188.586 44.146 187.98 44.97C187.98 44.97 190.07 43.97 190.76 47.34C191.45 50.71 187.93 53.67 187.93 53.67C187.93 53.67 189.83 53.9 188.85 56.39C187.87 58.88 184.78 58.92 184.78 58.92C184.78 58.92 185.98 59.53 183.71 61.58C181.44 63.63 174.13 60.7 174.13 60.7L161.63 48.76Z" fill="#263238"/>
<path d="M170.57 43.4199C163.57 43.7799 161.57 47.6399 161.4 54.8699C161.23 63.8699 163.56 70.1799 172.19 67.7999C183.89 64.5699 182.17 42.8099 170.57 43.4199Z" fill="#B97964"/>
<path d="M165.89 54.24C165.386 55.3118 164.755 56.319 164.01 57.24C164.231 57.5186 164.524 57.7312 164.857 57.8547C165.19 57.9781 165.551 58.0076 165.9 57.94L165.89 54.24Z" fill="#A24E3F"/>
<path d="M170.14 53.44C170.14 54.02 170.48 54.44 170.86 54.44C171.24 54.44 171.54 53.96 171.53 53.38C171.52 52.8 171.19 52.38 170.8 52.38C170.41 52.38 170.12 52.87 170.14 53.44Z" fill="#263238"/>
<path d="M170.96 52.4099L169.7 51.95C169.7 51.95 170.35 52.9899 170.96 52.4099Z" fill="#263238"/>
<path d="M162.99 53.53C162.99 54.11 163.33 54.53 163.72 54.53C164.11 54.53 164.4 54.05 164.38 53.47C164.36 52.89 164.04 52.47 163.66 52.47C163.28 52.47 162.98 52.96 162.99 53.53Z" fill="#263238"/>
<path d="M163.82 52.4899L162.55 52.0399C162.55 52.0399 163.21 53.0699 163.82 52.4899Z" fill="#263238"/>
<path d="M173.04 49.8099C172.998 49.8107 172.957 49.8022 172.919 49.7849C172.881 49.7676 172.847 49.742 172.82 49.7099C172.442 49.373 171.993 49.126 171.507 48.9874C171.02 48.8489 170.508 48.8224 170.01 48.9099C169.971 48.9171 169.931 48.9167 169.893 48.9085C169.854 48.9004 169.818 48.8847 169.785 48.8624C169.753 48.8401 169.725 48.8117 169.703 48.7786C169.682 48.7456 169.667 48.7087 169.66 48.6699C169.648 48.5932 169.667 48.5149 169.711 48.4515C169.756 48.3881 169.824 48.3445 169.9 48.3299C170.499 48.2204 171.116 48.2539 171.7 48.4276C172.284 48.6014 172.818 48.9105 173.26 49.3299C173.315 49.386 173.346 49.4614 173.346 49.5399C173.346 49.6184 173.315 49.6938 173.26 49.7499C173.197 49.7971 173.118 49.8186 173.04 49.8099Z" fill="#263238"/>
<path d="M162.11 49.5999C162.064 49.5997 162.019 49.5898 161.978 49.5708C161.937 49.5519 161.9 49.5243 161.87 49.4899C161.822 49.4263 161.802 49.3463 161.813 49.2675C161.824 49.1888 161.866 49.1177 161.93 49.0699C162.34 48.7252 162.823 48.477 163.342 48.3437C163.862 48.2104 164.404 48.1955 164.93 48.2999C164.968 48.3113 165.004 48.3303 165.035 48.3557C165.066 48.3811 165.091 48.4124 165.11 48.4478C165.129 48.4832 165.14 48.522 165.143 48.5619C165.147 48.6017 165.142 48.6419 165.13 48.6799C165.105 48.7533 165.052 48.814 164.983 48.8495C164.914 48.8849 164.834 48.8922 164.76 48.8699C164.32 48.7908 163.869 48.8108 163.438 48.9285C163.007 49.0461 162.608 49.2584 162.27 49.5499C162.222 49.581 162.167 49.5983 162.11 49.5999Z" fill="#263238"/>
<path d="M178.82 54.79C178.82 54.79 175.25 49.22 175.52 44.79C175.52 44.79 161.38 39.86 161.43 53.94C161.43 53.94 159.43 41.54 171.43 40.63C183.43 39.72 184.29 57.29 178.36 62.85C178.35 62.83 181.03 58.27 178.82 54.79Z" fill="#263238"/>
<path d="M177.76 56.3299C177.769 55.9259 177.858 55.5276 178.021 55.1579C178.185 54.7883 178.419 54.4545 178.712 54.1758C179.005 53.897 179.349 53.6788 179.727 53.5337C180.104 53.3885 180.506 53.3193 180.91 53.3299C183.09 53.4599 184.35 57.8499 179.02 59.1999C178.26 59.4099 177.78 58.6799 177.76 56.3299Z" fill="#B97964"/>
<path d="M167.58 62.0099C167.38 62.0242 167.18 62.0242 166.98 62.0099C166.941 62.0027 166.904 61.988 166.871 61.9665C166.838 61.945 166.81 61.9172 166.787 61.8847C166.765 61.8522 166.749 61.8156 166.741 61.777C166.733 61.7385 166.733 61.6987 166.74 61.66C166.746 61.6216 166.76 61.5849 166.78 61.5519C166.801 61.5189 166.828 61.4904 166.859 61.468C166.891 61.4457 166.927 61.4299 166.965 61.4216C167.003 61.4134 167.042 61.4128 167.08 61.4199C167.833 61.5524 168.609 61.4271 169.282 61.0642C169.955 60.7013 170.487 60.122 170.79 59.42C170.804 59.3832 170.826 59.3496 170.853 59.3212C170.881 59.2927 170.914 59.27 170.95 59.2542C170.986 59.2384 171.025 59.2299 171.064 59.2292C171.104 59.2285 171.143 59.2355 171.18 59.25C171.217 59.2644 171.25 59.2859 171.279 59.3134C171.307 59.3408 171.33 59.3735 171.346 59.4097C171.362 59.446 171.37 59.4849 171.371 59.5244C171.371 59.5639 171.364 59.6032 171.35 59.64C171.043 60.376 170.516 60.999 169.841 61.4234C169.166 61.8478 168.376 62.0527 167.58 62.0099Z" fill="#263238"/>
<path d="M181.39 52.24C179.72 43.57 166.9 36.29 162.09 46.37C162.896 43.8437 164.456 41.6245 166.56 40.01C166.56 40.01 179.56 36.3 181.85 51.11L181.39 52.24Z" fill="#ECC278"/>
<path d="M174.56 219.18C169.56 219.18 168.89 219.1 166.07 219C163.66 218.92 163.07 219.22 161.15 219.18C159.53 219.18 159.59 217.59 160.09 215.81C160.34 214.91 160.72 213.02 161.09 211.58L168.43 211.04C169.43 213.04 171.79 215.83 174.61 216.21C177.43 216.59 176.55 219.18 174.56 219.18Z" fill="#263238"/>
<path d="M150.89 111.36C150.89 111.36 140.89 126.23 146.31 138.45C151.73 150.67 179.14 145.15 179.14 145.15L161.08 211.61L169.72 213.04C169.72 213.04 200.35 147.17 201.13 135.94C201.91 124.71 168.84 117.5 168.84 117.5L150.89 111.36Z" fill="#407BFF"/>
<path opacity="0.3" d="M150.89 111.36C150.89 111.36 140.89 126.23 146.31 138.45C151.73 150.67 179.14 145.15 179.14 145.15L161.08 211.61L169.72 213.04C169.72 213.04 200.35 147.17 201.13 135.94C201.91 124.71 168.84 117.5 168.84 117.5L150.89 111.36Z" fill="white"/>
<path opacity="0.2" d="M181.39 77.1799C181.39 77.1799 167.39 87.0399 156.32 82.7999C156.32 82.3699 156.42 81.9499 156.46 81.5499C156.75 78.9199 156.93 76.6299 157.05 74.7399C160.638 73.1008 164.362 71.7791 168.18 70.7899C172.11 73.784 176.603 75.9571 181.39 77.1799Z" fill="black"/>
<path d="M161.89 68.97C168.05 71.97 174.41 75.7 181.12 77.07C184.98 76.82 189.3 75.25 193.18 74.19L204.81 70.6699C205.308 70.5131 205.847 70.5476 206.321 70.7666C206.795 70.9856 207.171 71.3734 207.374 71.8543C207.578 72.3353 207.595 72.8748 207.422 73.3677C207.25 73.8606 206.899 74.2714 206.44 74.5199C202.81 76.5199 199.15 78.3599 195.36 80.0399C190.68 81.9599 186.36 84.1999 181.08 84.6799C179.185 84.6579 177.302 84.3821 175.48 83.8599C169.332 82.0565 163.413 79.5499 157.84 76.3899C156.953 75.8097 156.316 74.9178 156.056 73.8906C155.795 72.8635 155.93 71.7758 156.432 70.843C156.935 69.9102 157.77 69.2001 158.771 68.8532C159.773 68.5064 160.868 68.548 161.84 68.97H161.89Z" fill="#B97864"/>
<path d="M158.58 67.86C153.19 69.14 153.01 78.39 157.96 82.73L169.96 72.6C169.96 72.6 164.97 66.34 158.58 67.86Z" fill="#ECC278"/>
<path d="M205.12 70.7199L211.77 70.5599L208.77 77.2899C208.77 77.2899 202.77 77.0799 203.06 74.0199L205.12 70.7199Z" fill="#B97964"/>
<path d="M217.48 73.8499L212.92 78.7599L208.75 77.2899L211.77 70.5599L217.48 73.8499Z" fill="#B97964"/>
<path d="M306.77 151.69C311.42 161.31 315.9 170.93 318.93 181.23C320.32 188.23 320.58 195.35 321.1 202.3C321.46 208.05 321.67 213.79 321.75 219.56L316.6 220.1C314.97 211.99 313.44 202.94 312.02 194.76C311.34 191.06 310.82 187.42 309.89 183.86C306.35 174.69 301.44 165.25 297.37 156.23L306.77 151.69Z" fill="#DC897C"/>
<path d="M314.45 164.28L306.3 168.18L301.24 170.63L298.17 163.25L294.96 155.52L297.67 141.43C305.99 145.07 314.45 164.28 314.45 164.28Z" fill="#ECC278"/>
<path opacity="0.2" d="M306.3 168.18L301.24 170.63L298.17 163.25C298.8 159.07 299.33 155.52 299.33 155.52C299.33 155.52 305.25 160.83 306.3 168.18Z" fill="black"/>
<path d="M281.89 115.88C281.98 116.48 282.37 116.88 282.76 116.88C283.15 116.88 283.39 116.29 283.3 115.69C283.21 115.09 282.81 114.69 282.42 114.69C282.03 114.69 281.74 115.29 281.89 115.88Z" fill="#263238"/>
<path d="M282.26 116.92C283.251 118.632 284.473 120.2 285.89 121.58C285.531 121.938 285.097 122.212 284.621 122.385C284.144 122.558 283.635 122.624 283.13 122.58L282.26 116.92Z" fill="#DE5753"/>
<path d="M279.14 112.91C279.051 112.907 278.965 112.871 278.9 112.81C278.835 112.743 278.799 112.653 278.799 112.56C278.799 112.467 278.835 112.377 278.9 112.31C279.291 111.908 279.774 111.608 280.307 111.434C280.84 111.259 281.407 111.217 281.96 111.31C282.006 111.319 282.049 111.338 282.087 111.364C282.125 111.391 282.158 111.424 282.183 111.463C282.208 111.502 282.225 111.546 282.233 111.592C282.241 111.638 282.24 111.685 282.23 111.73C282.221 111.775 282.202 111.819 282.176 111.857C282.149 111.895 282.116 111.928 282.077 111.953C282.038 111.978 281.994 111.995 281.948 112.003C281.902 112.011 281.855 112.01 281.81 112C281.37 111.937 280.922 111.981 280.503 112.127C280.084 112.273 279.705 112.518 279.4 112.84C279.363 112.868 279.322 112.889 279.277 112.901C279.232 112.913 279.186 112.916 279.14 112.91Z" fill="#263238"/>
<path d="M283.75 124.92C283.559 127.334 282.529 129.605 280.84 131.34C279.724 132.486 278.354 133.353 276.84 133.87C275.391 134.373 273.84 134.507 272.327 134.261C270.813 134.015 269.385 133.396 268.17 132.46C263.89 129.28 263.33 124.95 261.75 117.7C261.361 116.019 261.408 114.267 261.887 112.609C262.366 110.952 263.261 109.445 264.486 108.23C265.711 107.016 267.227 106.135 268.889 105.671C270.55 105.207 272.303 105.176 273.98 105.58C281.62 107.39 284.3 118.1 283.75 124.92Z" fill="#E4897B"/>
<path d="M264.5 129.53C267.5 131.42 278.84 126.11 276.97 117.18C276.97 117.18 281.44 112.29 281.22 106.66C281 101.03 277.22 98.6599 273.1 99.7199C269.44 100.61 269.45 102.6 269.45 102.6C269.45 102.6 252.29 103.81 255.61 110.92C248.31 118.18 260.81 127.18 264.5 129.53Z" fill="#263238"/>
<path d="M273.89 118.57C274.295 120.371 275.283 121.987 276.7 123.17C278.57 124.71 280.09 123.35 280.06 121.17C280.06 119.17 279.06 116 276.89 115.31C274.72 114.62 273.47 116.4 273.89 118.57Z" fill="#E4897B"/>
<path opacity="0.2" d="M283.23 127.44C282.731 128.9 281.915 130.232 280.84 131.34C279.724 132.486 278.354 133.353 276.84 133.87C275.823 133.355 274.847 132.763 273.92 132.1L275.44 128.37C275.44 128.37 280.1 130.65 283.23 127.44Z" fill="black"/>
<path d="M266.94 138.68L265.66 129.91C265.66 129.91 271.37 125.91 277.35 128.6L286.35 139.45L266.94 138.68Z" fill="#E4897B"/>
<path d="M287.39 138.37L285.3 135.24C285.3 135.24 270.14 129.63 263.53 136.82C263.53 136.82 278.32 144.64 287.39 138.37Z" fill="#407BFF"/>
<path opacity="0.2" d="M287.39 138.37L285.3 135.24C285.3 135.24 270.14 129.63 263.53 136.82C263.53 136.82 278.32 144.64 287.39 138.37Z" fill="black"/>
<path d="M229.18 223.4L223.47 219.72L225.66 216.45L231.61 207.57L237.33 211.25L230.75 221.06L229.18 223.4Z" fill="#E4897B"/>
<path d="M223.89 219.25L231.89 219.17C232.02 219.173 232.145 219.219 232.246 219.3C232.348 219.381 232.419 219.494 232.45 219.62L233.79 225.43C233.839 225.68 233.791 225.939 233.655 226.155C233.519 226.37 233.307 226.526 233.06 226.59H232.85C230.27 226.59 228.4 226.43 225.17 226.46C223.17 226.46 217.17 226.75 214.43 226.77C211.69 226.79 211.29 224.09 212.43 223.83C217.43 222.68 221.25 221.12 222.85 219.65C223.136 219.394 223.506 219.252 223.89 219.25Z" fill="#263238"/>
<path d="M225.43 214.24L235.89 217.06L292.67 173.98L263.54 167.6C261.459 167.155 259.293 167.354 257.328 168.17C255.363 168.986 253.693 170.382 252.54 172.17L225.43 214.24Z" fill="#263238"/>
<path opacity="0.2" d="M225.43 214.24L235.89 217.06L292.67 173.98L263.54 167.6C261.459 167.155 259.293 167.354 257.328 168.17C255.363 168.986 253.693 170.382 252.54 172.17L225.43 214.24Z" fill="black"/>
<path d="M194.39 223.61L188.49 220.24L190.51 216.86L195.98 207.68L201.88 211.05L195.83 221.19L194.39 223.61Z" fill="#E4897B"/>
<path d="M188.72 219.11H196.72C196.85 219.111 196.976 219.156 197.078 219.238C197.18 219.319 197.251 219.433 197.28 219.56L198.57 225.39C198.615 225.641 198.563 225.9 198.424 226.114C198.284 226.328 198.068 226.48 197.82 226.54H197.61C195.04 226.54 193.16 226.34 189.93 226.34C187.93 226.34 181.93 226.55 179.19 226.55C176.45 226.55 176.08 223.83 177.19 223.55C182.19 222.45 186.04 220.93 187.66 219.48C187.958 219.233 188.334 219.102 188.72 219.11Z" fill="#263238"/>
<path d="M306.37 196.6L266.67 196.7C265.67 193.18 264.41 180.93 260.53 165.78C259.48 161.67 258.23 157.35 256.76 152.92C255.539 148.914 254.056 144.992 252.32 141.18C255.912 139.009 259.859 137.489 263.98 136.69C281.55 133.69 297.67 141.43 297.67 141.43C297.67 141.43 304.64 160.83 306.37 196.6Z" fill="#ECC278"/>
<path opacity="0.2" d="M260.53 165.78C259.48 161.67 258.23 157.35 256.76 152.92L259.53 151.8C259.53 151.8 263.89 161.63 260.53 165.78Z" fill="black"/>
<path d="M243.16 172.58L247.77 174.76L249.53 167C249.53 167 245.85 165.71 243.09 167.59L243.16 172.58Z" fill="#E4897B"/>
<path d="M254.38 177.39L254.59 170.32L249.53 167L247.77 174.76L254.38 177.39Z" fill="#E4897B"/>
<path d="M257.53 153.33C249.86 157.48 241.1 161.33 234.43 166.76C234.28 166.89 234.33 166.95 234.5 166.37C234.532 166.001 234.484 165.629 234.36 165.28C234.25 164.9 234.004 164.573 233.67 164.36C233.54 164.31 233.62 164.43 233.8 164.55C234.05 164.706 234.315 164.836 234.59 164.94C237.67 166.11 241.94 166.5 245.39 166.94L245.91 172.09C244.82 172.4 243.8 172.61 242.73 172.81C238.73 173.5 234.58 173.99 230.37 172.6C228.561 172.056 227.034 170.829 226.114 169.179C225.194 167.529 224.952 165.585 225.44 163.76C227.5 156.45 246.14 147.33 252.98 143.94L257.53 153.34V153.33Z" fill="#DC897C"/>
<path d="M264.8 188.25L263.02 192.81C263.02 192.81 241.75 166.53 230.02 165.03C218.29 163.53 191.02 213.47 191.02 213.47L201.36 216.6L230.46 190.2C242.46 211.14 256.81 226.5 273.87 226.5H290.53C309.16 226.5 309.37 205.72 305.69 188.1L264.8 188.25Z" fill="#263238"/>
<path d="M252.32 141.18C245.65 143.62 237.81 151.02 237.81 151.02C237.81 151.02 244.41 162.46 245.07 162.02C245.73 161.58 259.27 157.7 259.27 157.7C259.27 157.7 262.03 154.12 259.91 148.06C259.359 146.349 258.367 144.812 257.035 143.605C255.703 142.397 254.077 141.561 252.32 141.18Z" fill="#ECC278"/>
<path d="M319.3 216.11L326.55 216.47L322.72 223.55C322.72 223.55 316.27 222.84 316.78 219.55L319.3 216.11Z" fill="#E4897B"/>
<path d="M332.49 220.51L327.14 225.48L322.72 223.55L326.55 216.47L332.49 220.51Z" fill="#E4897B"/>
<path d="M94.61 144.4C99.47 149.3 104.26 154.79 110.08 158.5C110.08 158.5 110.44 158.69 110.47 158.72C110.313 158.662 110.147 158.635 109.98 158.64C109.83 158.64 110.07 158.64 110.33 158.64C116.97 156.76 123.14 152.43 129.25 149.1C129.723 148.815 130.284 148.714 130.827 148.816C131.369 148.918 131.856 149.216 132.193 149.653C132.53 150.091 132.695 150.637 132.655 151.187C132.616 151.738 132.376 152.255 131.98 152.64C127.22 157.05 114.39 168.84 107.65 166.37C103.53 164.86 100.09 162.02 96.85 159.29C93.6852 156.547 90.7022 153.601 87.92 150.47C84.11 145.94 90.47 140.17 94.61 144.41V144.4Z" fill="#E9B376"/>
<path d="M102.97 151.32C102.12 157.68 96.97 163.92 96.97 163.92L95.89 163.18L90.63 159.69C90.63 159.69 90.53 159.39 90.38 158.86C90.23 158.33 90.04 157.71 89.81 156.86C88.6 152.62 86.42 144.69 86.15 141.4C92.68 141.25 95.62 144.36 102.97 151.32Z" fill="#407BFF"/>
<path opacity="0.7" d="M102.97 151.32C102.12 157.68 96.97 163.92 96.97 163.92L95.89 163.18L90.63 159.69C90.63 159.69 90.53 159.39 90.38 158.86C90.23 158.33 90.04 157.71 89.81 156.86C88.6 152.62 86.42 144.69 86.15 141.4C92.68 141.25 95.62 144.36 102.97 151.32Z" fill="white"/>
<path opacity="0.2" d="M95.89 163.18L90.63 159.69C90.63 159.69 90.53 159.39 90.38 158.86C90.5751 157.25 90.869 155.654 91.26 154.08C92.6458 155.17 93.7778 156.549 94.5773 158.12C95.3768 159.692 95.8247 161.418 95.89 163.18Z" fill="black"/>
<path d="M89.49 182.68L93.98 190.54C105.98 187.74 144.56 181.86 149.29 195.09C155.18 211.52 112.65 224.63 89.12 225.43C65.59 226.23 45.06 220.63 59.94 186.32L89.49 182.68Z" fill="#263238"/>
<path opacity="0.2" d="M89.49 182.68L93.98 190.54C105.98 187.74 144.56 181.86 149.29 195.09C155.18 211.52 112.65 224.63 89.12 225.43C65.59 226.23 45.06 220.63 59.94 186.32L89.49 182.68Z" fill="black"/>
<path d="M142.48 218.32C142.453 218.337 142.422 218.346 142.39 218.346C142.358 218.346 142.327 218.337 142.3 218.32C142.286 218.298 142.278 218.272 142.278 218.245C142.278 218.218 142.286 218.192 142.3 218.17C142.38 217.91 143.16 215.65 143.95 215.41C144.033 215.39 144.12 215.391 144.202 215.414C144.284 215.437 144.359 215.48 144.42 215.54C144.528 215.632 144.611 215.75 144.66 215.883C144.709 216.016 144.723 216.16 144.7 216.3C144.571 216.725 144.312 217.099 143.96 217.37C143.501 217.737 143.005 218.055 142.48 218.32ZM142.68 217.89C143.415 217.571 144.008 216.995 144.35 216.27C144.372 216.176 144.366 216.077 144.332 215.986C144.298 215.895 144.239 215.817 144.16 215.76C144.138 215.732 144.108 215.712 144.074 215.701C144.04 215.691 144.004 215.69 143.97 215.7C143.903 215.724 143.842 215.762 143.79 215.81C143.297 216.43 142.921 217.135 142.68 217.89Z" fill="#263238"/>
<path d="M142.43 218.35C142.41 218.366 142.386 218.375 142.36 218.375C142.334 218.375 142.31 218.366 142.29 218.35C142.21 218.29 141.13 216.92 141.29 215.99C141.309 215.875 141.352 215.765 141.416 215.666C141.479 215.568 141.562 215.485 141.66 215.42C141.745 215.344 141.852 215.297 141.965 215.286C142.079 215.275 142.192 215.301 142.29 215.36C142.86 215.77 142.79 217.6 142.51 218.3V218.37L142.43 218.35ZM141.82 215.67C141.72 215.75 141.653 215.864 141.63 215.99C141.66 216.683 141.916 217.347 142.36 217.88C142.53 217.1 142.48 215.81 142.14 215.58C142.14 215.58 142.04 215.5 141.87 215.58V215.63L141.82 215.67Z" fill="#263238"/>
<path d="M101.11 222.18C101.125 222.155 101.148 222.135 101.174 222.122C101.201 222.11 101.231 222.106 101.26 222.11C101.287 222.112 101.312 222.123 101.332 222.141C101.352 222.159 101.366 222.183 101.37 222.21C101.43 222.48 101.84 224.84 101.27 225.43C101.206 225.487 101.128 225.527 101.043 225.544C100.959 225.562 100.872 225.557 100.79 225.53C100.649 225.507 100.518 225.445 100.41 225.351C100.302 225.258 100.223 225.136 100.18 225C100.081 224.571 100.127 224.121 100.31 223.72C100.522 223.18 100.791 222.664 101.11 222.18ZM101.11 222.66C100.623 223.294 100.379 224.082 100.42 224.88C100.447 224.976 100.503 225.062 100.58 225.126C100.656 225.19 100.751 225.23 100.85 225.24C100.878 225.259 100.911 225.269 100.945 225.269C100.979 225.269 101.012 225.259 101.04 225.24C101.085 225.187 101.119 225.126 101.14 225.06C101.29 224.267 101.29 223.453 101.14 222.66H101.11Z" fill="#263238"/>
<path d="M116.51 210.27L106.83 213.72L102.18 215.38L103.37 220.47L107.87 219.51L118.87 217.16L116.51 210.27Z" fill="#EBB376"/>
<path d="M104.64 220.71L103.82 214.71C103.809 214.631 103.782 214.555 103.742 214.486C103.701 214.417 103.647 214.357 103.582 214.31C103.518 214.262 103.445 214.228 103.367 214.209C103.29 214.19 103.209 214.187 103.13 214.2L100.13 214.7C100.13 214.7 96.13 215.07 95.3 216.11C92.96 219.11 94.42 232.45 95.98 232.92C96.55 233.09 97.15 232.31 97.4 231.77C98.19 230.05 99.58 225.56 100.26 224.14C101.04 222.47 103.26 221.66 104.18 221.37C104.325 221.337 104.452 221.251 104.537 221.129C104.622 221.007 104.659 220.858 104.64 220.71Z" fill="#407BFF"/>
<path d="M101.13 222.18C101.152 222.165 101.178 222.156 101.205 222.156C101.232 222.156 101.258 222.165 101.28 222.18C101.37 222.18 102.99 222.88 103.28 223.77C103.315 223.882 103.328 223.999 103.318 224.116C103.307 224.233 103.274 224.346 103.22 224.45C103.188 224.561 103.119 224.657 103.024 224.723C102.929 224.788 102.815 224.819 102.7 224.81C102.01 224.73 101.18 223.09 101.09 222.35V222.18C101.103 222.177 101.117 222.177 101.13 222.18ZM102.97 224.23C103.01 224.106 103.01 223.974 102.97 223.85C102.78 223.28 101.88 222.78 101.42 222.55C101.64 223.32 102.31 224.42 102.72 224.46C102.72 224.46 102.84 224.46 102.93 224.29V224.23H102.97Z" fill="#263238"/>
<path opacity="0.2" d="M116.51 210.27L106.83 213.72L107.87 219.51L118.87 217.16L116.51 210.27Z" fill="black"/>
<path d="M109.59 220.38L112.37 220.58L110.51 211L107.35 212.74L109.59 220.38Z" fill="#407BFF"/>
<path opacity="0.6" d="M109.59 220.38L112.37 220.58L110.51 211L107.35 212.74L109.59 220.38Z" fill="white"/>
<path opacity="0.2" d="M69.2 183.18L83.7 199.26C83.7 199.26 99.7 198.9 119.2 208.42C119.2 208.42 140.09 199.79 142.01 192.62C144.53 183.23 94.01 190.57 94.01 190.57L69.2 183.18Z" fill="black"/>
<path d="M89.3399 189.61L59.7699 186.18C60.3363 183.126 60.6706 180.034 60.7699 176.93C60.8884 172.507 60.7147 168.08 60.2499 163.68C59.8399 159.47 59.2499 154.63 58.2499 148.95C58.0499 147.934 58.0796 146.887 58.337 145.884C58.5943 144.881 59.0727 143.949 59.7372 143.155C60.4016 142.361 61.2353 141.726 62.1771 141.296C63.1188 140.866 64.1448 140.652 65.1799 140.67C66.3699 140.67 67.6199 140.73 68.8999 140.81C73.4282 141.013 77.9362 141.537 82.3899 142.38C83.8299 142.67 85.3199 143.03 86.7499 143.38C91.8799 144.71 95.0599 151.17 94.6199 156.38C94.4469 160.429 93.9992 164.462 93.2799 168.45C92.3699 174.33 91.2999 180.07 89.3399 189.61Z" fill="#407BFF"/>
<path opacity="0.7" d="M89.3399 189.61L59.7699 186.18C60.3363 183.126 60.6706 180.034 60.7699 176.93C60.8884 172.507 60.7147 168.08 60.2499 163.68C59.8399 159.47 59.2499 154.63 58.2499 148.95C58.0499 147.934 58.0796 146.887 58.337 145.884C58.5943 144.881 59.0727 143.949 59.7372 143.155C60.4016 142.361 61.2353 141.726 62.1771 141.296C63.1188 140.866 64.1448 140.652 65.1799 140.67C66.3699 140.67 67.6199 140.73 68.8999 140.81C73.4282 141.013 77.9362 141.537 82.3899 142.38C83.8299 142.67 85.3199 143.03 86.7499 143.38C91.8799 144.71 95.0599 151.17 94.6199 156.38C94.4469 160.429 93.9992 164.462 93.2799 168.45C92.3699 174.33 91.2999 180.07 89.3399 189.61Z" fill="white"/>
<path opacity="0.2" d="M60.79 176.94C60.9085 172.517 60.7348 168.09 60.27 163.69C63.97 159.32 67.47 155.69 67.47 155.69C67.47 155.69 73.27 170.62 60.79 176.94Z" fill="black"/>
<path d="M65.4599 154.07C65.7999 160.4 65.7399 170.25 66.8899 176.3L66.5899 175.56C66.3899 175.27 66.5099 175.56 66.7199 175.72C66.9905 175.988 67.2777 176.239 67.5799 176.47C71.5799 179.47 76.3799 181.78 80.8899 184.17L86.5799 187.1C87.0732 187.348 87.4584 187.768 87.6622 188.28C87.866 188.793 87.8742 189.363 87.6853 189.881C87.4964 190.4 87.1236 190.831 86.6377 191.093C86.1518 191.354 85.5868 191.428 85.0499 191.3C82.8799 190.78 80.7999 190.16 78.6899 189.52C72.6899 187.52 66.5299 185.6 61.3699 181.69C60.3621 180.908 59.579 179.873 59.0999 178.69C56.7899 170.49 56.6099 162.57 56.4399 154.21C56.6499 148.38 65.0899 148.27 65.4399 154.1L65.4599 154.07Z" fill="#E9B376"/>
<path d="M94.56 186.74L92.76 185.43C92.4265 185.188 92.0399 185.031 91.6327 184.97C91.2254 184.909 90.8095 184.947 90.42 185.08L86.72 186.32C85.9907 186.567 85.3308 186.984 84.7951 187.537C84.2594 188.09 83.8634 188.763 83.64 189.5L83.36 190.43C86.2 192.79 91.01 193.26 91.01 193.26L92.36 193.54C92.6365 193.607 92.9235 193.618 93.2043 193.573C93.4852 193.528 93.7543 193.428 93.9962 193.278C94.238 193.128 94.4477 192.932 94.6131 192.701C94.7786 192.469 94.8965 192.207 94.96 191.93L95.56 189.25C95.6564 188.78 95.6131 188.291 95.4354 187.845C95.2577 187.399 94.9534 187.015 94.56 186.74Z" fill="#EBB376"/>
<path d="M62.76 141.08C56.98 143.15 55.32 148.19 55.2 158.7C58.2 161.43 67.31 161.58 67.31 161.58C67.31 161.58 68.89 145.64 62.76 141.08Z" fill="#407BFF"/>
<path d="M132.78 192.53V194.91C132.78 195.52 132.06 195.77 131.45 195.77H83.89C83.27 195.77 82.54 195.52 82.54 194.91V192.53H132.78Z" fill="#263238"/>
<path opacity="0.4" d="M132.78 192.53V194.91C132.78 195.52 132.06 195.77 131.45 195.77H83.89C83.27 195.77 82.54 195.52 82.54 194.91V192.53H132.78Z" fill="white"/>
<path opacity="0.2" d="M132.78 192.53V194.91C132.78 195.52 132.06 195.77 131.45 195.77H100.05C99.44 195.77 98.71 195.52 98.71 194.91V192.53H132.78Z" fill="black"/>
<path d="M140.75 167.79L135.08 193.5C134.975 193.911 134.738 194.276 134.406 194.54C134.074 194.804 133.664 194.951 133.24 194.96H102.24C102.047 194.955 101.858 194.905 101.687 194.814C101.517 194.724 101.37 194.595 101.257 194.438C101.145 194.281 101.071 194.1 101.04 193.91C101.009 193.719 101.023 193.524 101.08 193.34L106.74 167.83C106.856 167.441 107.102 167.103 107.437 166.874C107.772 166.644 108.175 166.537 108.58 166.57H139.58C140.41 166.57 140.89 166.95 140.75 167.79Z" fill="#263238"/>
<path opacity="0.4" d="M140.75 167.79L135.08 193.5C134.975 193.911 134.738 194.276 134.406 194.54C134.074 194.804 133.664 194.951 133.24 194.96H103.32C103.127 194.954 102.938 194.904 102.767 194.814C102.596 194.723 102.449 194.595 102.336 194.438C102.223 194.282 102.147 194.101 102.115 193.911C102.083 193.72 102.095 193.525 102.15 193.34L107.82 167.83C107.936 167.441 108.182 167.103 108.517 166.874C108.852 166.644 109.255 166.537 109.66 166.57H139.58C140.41 166.57 140.89 166.95 140.75 167.79Z" fill="white"/>
<path opacity="0.2" d="M125.48 180.85C125.381 181.893 124.916 182.867 124.167 183.599C123.418 184.331 122.435 184.774 121.39 184.85C119.66 184.85 118.63 183.06 119.13 180.85C119.63 178.64 121.34 176.93 123.03 176.85C122.54 179.05 123.6 180.85 125.32 180.85H125.48Z" fill="black"/>
<path d="M130.39 153.46L137.05 153.63L134.05 146.89C134.05 146.89 128.11 147.1 128.34 150.16L130.39 153.46Z" fill="#EBB376"/>
<path d="M142.76 150.35L138.2 145.43L134.03 146.89L137.05 153.63L142.76 150.35Z" fill="#EBB376"/>
<path d="M67.44 140.74C66.76 140.69 68.84 149.04 78.94 151.1C89.04 153.16 88.26 143.87 87.47 141.54C87.47 141.54 74.19 141.18 67.44 140.74Z" fill="#EBB376"/>
<path d="M70.21 108.09C70.21 108.09 76 101.67 86.59 104.98C97.18 108.29 96.73 127.19 91.35 134.05C82.9243 133.754 74.4955 134.541 66.27 136.39C66.27 136.39 61.17 122.68 63.7 114.62C66.23 106.56 70.21 108.09 70.21 108.09Z" fill="#263238"/>
<path d="M72.34 126.94C73.01 131.4 73.53 139.48 70.34 142.04C70.34 142.04 74.5 141.9 82.57 148.28C85.5 144.96 83.77 143.59 83.77 143.59C79 141.88 79.27 138.28 80.24 134.99L72.34 126.94Z" fill="#EBB376"/>
<path opacity="0.2" d="M75.58 130.23L80.29 134.99C80.0523 135.761 79.8817 136.55 79.78 137.35C77.95 136.87 75.5 134.54 75.39 132.57C75.3123 131.785 75.3766 130.992 75.58 130.23Z" fill="black"/>
<path d="M69.65 117.84C70.15 124.97 70.22 127.99 73.81 131.84C79.22 137.56 87.81 135.84 89.36 128.84C90.81 122.52 89.74 111.92 82.82 108.79C81.3604 108.067 79.7343 107.748 78.1097 107.863C76.485 107.979 74.9208 108.527 73.5784 109.449C72.2361 110.372 71.1643 111.636 70.4737 113.111C69.7831 114.586 69.4988 116.218 69.65 117.84Z" fill="#EBB376"/>
<path d="M78.43 120.03C78.43 120.64 78.76 121.13 79.15 121.15C79.54 121.17 79.82 120.69 79.81 120.09C79.8 119.49 79.47 118.99 79.09 118.98C78.71 118.97 78.41 119.43 78.43 120.03Z" fill="#263238"/>
<path d="M85.89 120.11C85.89 120.71 86.23 121.21 86.61 121.23C86.99 121.25 87.28 120.77 87.27 120.17C87.26 119.57 86.93 119.07 86.55 119.06C86.17 119.05 85.89 119.51 85.89 120.11Z" fill="#263238"/>
<path d="M86.35 119.08L87.74 118.72C87.74 118.72 87.05 119.82 86.35 119.08Z" fill="#263238"/>
<path d="M83.63 121.34C84.1892 122.733 84.9217 124.05 85.81 125.26C85.5105 125.464 85.1688 125.598 84.8104 125.652C84.452 125.705 84.0861 125.677 83.74 125.57L83.63 121.34Z" fill="#D58745"/>
<path d="M77.2299 116.23C77.275 116.237 77.3211 116.234 77.3645 116.22C77.408 116.206 77.4475 116.182 77.4799 116.15C77.7921 115.861 78.1715 115.655 78.5837 115.55C78.9959 115.445 79.4277 115.445 79.84 115.55C79.882 115.564 79.9263 115.568 79.9703 115.564C80.0142 115.56 80.0568 115.546 80.0953 115.525C80.1338 115.503 80.1674 115.474 80.194 115.439C80.2207 115.403 80.2397 115.363 80.25 115.32C80.2749 115.227 80.2627 115.128 80.216 115.044C80.1694 114.96 80.0919 114.898 80 114.87C79.4781 114.73 78.9293 114.725 78.4047 114.854C77.8801 114.983 77.3969 115.243 77 115.61C76.9358 115.675 76.8999 115.763 76.8999 115.855C76.8999 115.947 76.9358 116.035 77 116.1C77.0574 116.171 77.1396 116.217 77.2299 116.23Z" fill="#263238"/>
<path d="M88.79 116.29C88.8705 116.321 88.9596 116.321 89.04 116.29C89.0788 116.266 89.1123 116.234 89.1385 116.196C89.1646 116.159 89.1829 116.116 89.1923 116.071C89.2016 116.027 89.2018 115.98 89.1928 115.935C89.1838 115.891 89.1659 115.848 89.14 115.81C88.8652 115.317 88.4806 114.893 88.0158 114.573C87.5511 114.252 87.0188 114.042 86.46 113.96C86.4155 113.957 86.3709 113.964 86.329 113.979C86.2872 113.995 86.249 114.019 86.217 114.05C86.185 114.081 86.1598 114.118 86.1431 114.16C86.1264 114.201 86.1186 114.246 86.12 114.29C86.1217 114.384 86.1569 114.474 86.2193 114.543C86.2818 114.613 86.3672 114.658 86.46 114.67C86.902 114.737 87.3225 114.906 87.6885 115.163C88.0545 115.42 88.3562 115.757 88.57 116.15C88.5957 116.187 88.6283 116.218 88.6661 116.242C88.7038 116.266 88.746 116.282 88.79 116.29Z" fill="#263238"/>
<path d="M78.89 119L80.28 118.65C80.28 118.65 79.62 119.74 78.89 119Z" fill="#263238"/>
<path d="M71.13 122.12C71.13 122.12 76.63 117.8 75.38 111.04C75.38 111.04 85.22 107.15 89.1 117.04C89.1 117.04 89.92 108.56 80.67 106.9C71.42 105.24 60.47 117.78 70.95 127.29L71.13 122.12Z" fill="#263238"/>
<path d="M67.38 123.6C67.7368 124.262 68.2209 124.846 68.8044 125.32C69.3879 125.793 70.0593 126.147 70.78 126.36C72.65 126.87 73.49 125.03 72.89 123.13C72.34 121.42 70.71 119.13 68.89 119.42C67.07 119.71 66.45 121.91 67.38 123.6Z" fill="#EBB376"/>
<path d="M90.1799 121.24C90.1349 121.24 90.0912 121.225 90.0552 121.198C90.0192 121.171 89.9928 121.133 89.9799 121.09C86.4499 108.66 74.7999 111.22 74.6799 111.24C74.6543 111.246 74.6278 111.247 74.6019 111.242C74.576 111.238 74.5512 111.229 74.5289 111.215C74.5066 111.201 74.4873 111.183 74.472 111.161C74.4567 111.14 74.4459 111.116 74.4399 111.09C74.434 111.064 74.4332 111.038 74.4376 111.012C74.4419 110.986 74.4513 110.961 74.4652 110.939C74.4792 110.917 74.4973 110.897 74.5187 110.882C74.5401 110.867 74.5643 110.856 74.5899 110.85C74.7099 110.85 86.7399 108.18 90.3699 120.98C90.3775 121.006 90.3799 121.033 90.3769 121.059C90.374 121.086 90.3657 121.111 90.3527 121.135C90.3396 121.158 90.322 121.178 90.301 121.195C90.2799 121.211 90.2557 121.223 90.2299 121.23L90.1799 121.24Z" fill="#263238"/>
<path d="M84.09 127.64C83.741 128.457 83.4535 129.3 83.23 130.16H82.76C80.65 129.93 79.76 129.16 79.38 128.31C79.2097 127.906 79.1377 127.467 79.17 127.03C79.1854 126.782 79.2324 126.536 79.31 126.3C80.5542 127.02 81.939 127.464 83.37 127.6C83.81 127.62 84.09 127.64 84.09 127.64Z" fill="#263238"/>
<path d="M83.3699 127.56L83.0999 128.29C81.0999 128.08 79.7299 127.66 79.1699 126.99C79.1853 126.742 79.2323 126.496 79.3099 126.26C80.5541 126.98 81.9389 127.424 83.3699 127.56Z" fill="white"/>
<path d="M82.76 130.12C80.65 129.89 79.76 129.12 79.38 128.27C80.1815 128.374 80.9594 128.614 81.68 128.98C82.1493 129.239 82.5267 129.637 82.76 130.12Z" fill="#DE5753"/>
<path d="M82.42 160.96C82.3882 160.962 82.3564 160.957 82.3269 160.945C82.2975 160.933 82.2712 160.914 82.25 160.89C76.9365 155.193 72.93 148.405 70.51 141C70.4947 140.939 70.504 140.875 70.5358 140.82C70.5675 140.766 70.6193 140.727 70.68 140.71C70.7096 140.703 70.7403 140.701 70.7704 140.706C70.8006 140.71 70.8295 140.721 70.8556 140.737C70.8816 140.752 70.9043 140.773 70.9222 140.798C70.9401 140.822 70.953 140.85 70.96 140.88C73.3154 148.082 77.1893 154.694 82.32 160.27C82.92 158.27 85.41 148.77 81.66 141.49C81.6417 141.436 81.6433 141.377 81.6646 141.324C81.6859 141.271 81.7254 141.227 81.776 141.201C81.8267 141.174 81.8851 141.167 81.9408 141.179C81.9966 141.192 82.0459 141.224 82.08 141.27C86.37 149.6 82.68 160.69 82.64 160.8C82.6268 160.839 82.6045 160.873 82.5748 160.901C82.5452 160.929 82.5092 160.949 82.47 160.96H82.42Z" fill="#263238"/>
<path d="M82.73 160.54L83.49 161.54C83.5581 161.625 83.5953 161.731 83.5953 161.84C83.5953 161.949 83.5581 162.055 83.49 162.14L82.72 163.14C82.674 163.195 82.6166 163.239 82.5518 163.269C82.487 163.299 82.4164 163.315 82.345 163.315C82.2735 163.315 82.2029 163.299 82.1381 163.269C82.0734 163.239 82.016 163.195 81.97 163.14L81.25 162.32C81.1867 162.237 81.1525 162.135 81.1525 162.03C81.1525 161.925 81.1867 161.824 81.25 161.74L81.89 160.58C81.9319 160.508 81.9913 160.447 82.0627 160.403C82.1342 160.36 82.2155 160.335 82.2991 160.331C82.3827 160.327 82.4659 160.344 82.5412 160.381C82.6165 160.417 82.6814 160.472 82.73 160.54Z" fill="white"/>
<path opacity="0.7" d="M62.76 141.08C56.98 143.15 55.32 148.19 55.2 158.7C58.2 161.43 67.31 161.58 67.31 161.58C67.31 161.58 68.89 145.64 62.76 141.08Z" fill="white"/>
<path d="M123.23 221.29L133.37 222.96L138.24 223.76L139.66 218.73L135.26 217.39L124.5 214.12L123.23 221.29Z" fill="#EBB376"/>
<path d="M138.67 217.91L136.48 223.55C136.451 223.625 136.438 223.706 136.44 223.787C136.443 223.867 136.461 223.947 136.495 224.02C136.528 224.094 136.576 224.16 136.635 224.215C136.695 224.27 136.764 224.312 136.84 224.34L139.67 225.34C139.67 225.34 143.38 226.96 144.58 226.44C148.09 224.93 153.26 212.56 152.12 211.44C151.7 211.01 150.8 211.44 150.32 211.76C148.8 212.88 145.41 216.13 144.13 217.05C142.63 218.13 140.34 217.79 139.35 217.58C139.216 217.545 139.074 217.559 138.949 217.619C138.824 217.68 138.725 217.783 138.67 217.91Z" fill="#407BFF"/>
<path opacity="0.2" d="M123.23 221.29L133.37 222.96L135.26 217.39L124.5 214.12L123.23 221.29Z" fill="black"/>
<path d="M133.51 216.34C133.51 216.34 92.1699 193.1 77.8899 193.76C63.6099 194.42 61.5699 207 67.4499 214.87C73.3299 222.74 84.2099 224.66 84.2099 224.66C84.2099 224.66 76.8199 214.18 77.8899 211.26C78.9599 208.34 83.1399 212.42 83.1399 212.42C83.1399 212.42 109.14 220.82 131.91 222.75L133.51 216.34Z" fill="#263238"/>
<path d="M134.18 215.7L131.84 214.13L128.83 223.36H132.44L134.18 215.7Z" fill="#407BFF"/>
<path opacity="0.6" d="M134.18 215.7L131.84 214.13L128.83 223.36H132.44L134.18 215.7Z" fill="white"/>
</svg>
